<?xml version="1.0" encoding="UTF-8"?>
<!DOCTYPE svg PUBLIC "-//W3C//DTD SVG 1.1//EN" "http://www.w3.org/Graphics/SVG/1.1/DTD/svg11.dtd">
<!-- Creator: CorelDRAW X8 -->
<svg xmlns="http://www.w3.org/2000/svg" xml:space="preserve" width="47.1144mm" height="39.3585mm" version="1.1" style="shape-rendering:geometricPrecision; text-rendering:geometricPrecision; image-rendering:optimizeQuality; fill-rule:evenodd; clip-rule:evenodd"
viewBox="0 0 1537 1284"
 xmlns:xlink="http://www.w3.org/1999/xlink">
 <defs>
  <style type="text/css">
   <![CDATA[
    .fil0 {fill:#727271}
    .fil1 {fill:#2B6E7D}
   ]]>
  </style>
 </defs>
 <g id="Слой_x0020_1">
  <metadata id="CorelCorpID_0Corel-Layer"/>
  <g id="_2931297770128">
   <g>
    <path class="fil0" d="M1184 1283l-20 0 0 -81 20 0 0 81zm-117 -41c0,7 2,12 6,17 4,5 9,7 16,7 8,0 15,-4 19,-13l21 0c-2,9 -7,16 -15,22 -7,6 -15,9 -25,9 -12,0 -22,-4 -30,-12 -8,-8 -13,-18 -13,-30 0,-11 4,-21 13,-29 8,-8 18,-12 29,-12 10,0 19,3 26,9 8,5 13,13 15,23l-21 0c-2,-5 -5,-9 -9,-11 -3,-2 -7,-3 -11,-3 -6,0 -11,2 -15,7 -4,4 -6,10 -6,16zm-54 41l-45 0 0 -81 45 0 0 18 -24 0 0 13 23 0 0 18 -23 0 0 14 24 0 0 18zm-133 0l0 -81 47 0 0 18 -28 0 0 12 5 0c20,0 30,8 30,26 0,8 -3,15 -9,19 -5,4 -12,6 -21,6l-24 0zm19 -35l0 17 4 0c8,0 11,-2 11,-7 0,-7 -3,-10 -11,-10l-4 0zm-91 -22l-21 0c0,-8 3,-14 9,-19 5,-4 11,-6 19,-6 7,0 14,1 19,5 5,4 8,9 8,16 0,9 -4,15 -13,18 11,3 16,9 16,19 0,7 -4,14 -10,18 -6,5 -12,7 -20,7 -8,0 -15,-2 -21,-6 -2,-3 -5,-5 -6,-8 -2,-4 -3,-7 -3,-11l21 0c1,5 4,7 10,7 2,0 4,-1 6,-2 1,-2 2,-4 2,-7 0,-4 -2,-6 -7,-8 -2,0 -5,0 -11,0l0 -15 4 0c3,0 6,-1 8,-2 2,-1 3,-3 3,-6 0,-2 0,-3 -2,-5 -2,-1 -3,-2 -5,-2 -4,0 -6,2 -6,7zm-57 57l-21 0 0 -81 21 0 0 81zm-69 0l-21 0 0 -63 -16 0 0 -18 53 0 0 18 -16 0 0 63zm-137 -81l21 0 0 31 26 0 0 -31 20 0 0 81 -20 0 0 -33 -26 0 0 33 -21 0 0 -81zm-54 0l22 0 -24 51 0 30 -20 0 0 -30 -24 -51 22 0 12 33 12 -33zm-117 81l-21 0 0 -81 21 0 0 37 22 -37 22 0 -27 40 29 41 -24 0 -22 -35 0 35zm1163 -51l-329 0 0 21 329 0 0 -21zm-1207 0l-330 0 0 21 330 0 0 -21z"/>
    <path class="fil0" d="M1367 970l52 0 0 76 67 0 0 -76 51 0 0 204 -51 0 0 -82 -67 0 0 82 -52 0 0 -204zm-21 204l-57 0 -10 -30 -70 0 -11 30 -56 0 82 -204 41 0 81 204zm-80 -71l-22 -71 -21 71 43 0zm-171 71l-52 0 0 -159 -40 0 0 -45 132 0 0 45 -40 0 0 159zm-264 -103c0,16 5,30 16,43 10,12 23,18 40,18 21,0 38,-12 49,-35l54 0c-7,24 -20,43 -38,58 -18,15 -39,23 -64,23 -30,0 -56,-11 -77,-31 -21,-20 -32,-46 -32,-76 0,-30 11,-55 31,-75 21,-20 46,-30 76,-30 25,0 48,7 66,22 19,14 31,34 38,59l-55 0c-6,-13 -13,-23 -22,-28 -8,-5 -18,-7 -27,-7 -16,0 -29,5 -40,17 -10,11 -15,25 -15,42zm-80 103l-53 0 0 -204 53 0 0 204zm-189 0l-53 0 0 -204 53 0 0 92 58 -92 54 0 -67 101 72 103 -61 0 -56 -89 0 89zm-176 -64l0 64 -53 0 0 -204 76 0c23,0 41,5 55,16 15,11 23,28 23,50 0,23 -7,41 -20,54 -13,13 -31,20 -54,20l-27 0zm0 -46l20 0c21,0 31,-8 31,-25 0,-16 -10,-24 -31,-24l-20 0 0 49zm-130 -94l56 0 -60 129 0 75 -52 0 0 -75 -61 -129 56 0 31 81 30 -81zm-164 204l-52 0 0 -159 -40 0 0 -45 133 0 0 45 -41 0 0 159z"/>
   </g>
   <g>
    <path class="fil1" d="M173 428c-13,-22 -17,-47 -10,-71 7,-23 21,-44 41,-62 17,-15 39,-26 60,-31 24,-5 47,-2 67,8 26,14 43,41 43,70 0,25 -13,47 -37,59 -23,13 -54,10 -75,-8l0 0c-3,-2 -5,-4 -7,-6 -9,-5 -17,-5 -24,-2 -12,5 -20,12 -24,23 -4,8 -5,19 -4,32 1,1 1,3 2,6 2,8 3,15 1,17 0,1 -1,2 -1,2 -4,1 -12,-2 -32,-37zm911 -64c-5,1 -10,0 -14,-3 -4,-3 -6,-8 -7,-13 -1,-5 1,-9 4,-13 3,-4 7,-7 12,-7 5,-1 10,0 13,3 4,3 7,8 8,12 0,5 -1,10 -4,14 -3,4 -7,7 -12,7zm10 -20c0,-3 -2,-6 -5,-8 -3,-2 -6,-3 -9,-3 -4,1 -7,2 -9,5 -2,3 -3,6 -2,10 0,3 2,6 5,8 2,2 6,3 9,3 3,-1 6,-3 9,-5 2,-3 2,-6 2,-10zm22 -54c1,-1 2,-1 3,-1 0,1 0,2 0,3 -1,-1 -2,-2 -3,-2zm-12 74c-9,12 -28,15 -40,5 -13,-10 -16,-28 -6,-41 10,-12 28,-15 41,-5 13,10 15,28 5,41zm-8 -37c-11,-8 -26,-6 -33,5 -8,10 -6,25 4,33 10,7 25,5 33,-5 8,-10 6,-25 -4,-33zm-130 85c1,0 1,-1 1,-1 0,1 0,1 -1,1l0 0zm-41 -87c-4,3 -9,6 -14,8 -5,3 -10,4 -15,5 -4,0 -7,0 -11,-1 -2,-1 -5,-3 -7,-5 -3,-3 -5,-7 -6,-11 -1,-6 -1,-12 0,-18l0 0c1,-6 3,-11 7,-16 3,-3 6,-6 10,-8 3,-1 6,-2 9,-2 3,1 6,2 10,4 1,1 2,2 4,3 2,2 5,4 8,7 3,4 6,8 9,13 2,4 4,7 4,10 1,0 1,0 1,1l0 0 0 1 -1 1 0 0 0 0c-1,2 -4,4 -8,8zm0 -18c-3,-5 -6,-9 -9,-12 -4,-4 -7,-7 -11,-10 -3,-1 -5,-2 -8,-2 -2,-1 -4,0 -6,1 -3,1 -6,3 -8,6 -3,4 -5,9 -6,14l0 0c-1,5 -1,11 0,15 1,4 3,7 5,9l0 1c1,1 3,2 5,3 2,1 5,1 9,1 4,-1 8,-2 13,-5 4,-2 9,-4 13,-7 3,-3 5,-5 6,-6 -1,-3 -2,-5 -3,-8zm-129 -51c-3,1 -6,3 -7,6 -2,3 -3,6 -2,9 1,3 2,5 5,7 0,0 0,0 1,0 6,4 13,2 16,-4 4,-5 2,-13 -4,-16 -3,-2 -6,-2 -9,-2zm9 -21c-1,3 -2,6 -1,10 0,2 2,5 4,6 0,1 0,1 1,1 5,3 13,2 16,-3 4,-6 2,-13 -3,-17 -2,-2 -6,-2 -9,-2 -3,1 -6,2 -8,5zm113 80c-4,3 -8,5 -12,7 -4,2 -8,3 -11,4 -3,0 -5,0 -6,0 0,0 -1,-1 -2,-2l0 0c-1,-1 -3,-3 -3,-6 -1,-4 -2,-8 -1,-12l0 -1c1,-4 3,-7 5,-11 2,-2 4,-3 6,-4 1,-1 2,-1 3,-1 1,0 2,1 5,2 1,1 2,1 3,2 2,2 4,4 6,6 3,3 6,7 8,11 0,0 0,1 0,1l1 2 -1 1c-1,1 -1,1 -1,1zm-11 -13c-3,-3 -5,-5 -8,-6 -2,-1 -3,-2 -3,-2 0,0 0,0 0,1 -1,0 -2,1 -4,3 -1,2 -3,5 -4,8l0 1c0,3 0,6 1,9 0,3 1,4 2,5l0 0c0,0 0,0 0,0l0 0c0,0 1,0 3,0 3,-1 6,-2 10,-3 3,-2 7,-4 10,-6 -2,-4 -5,-7 -7,-10zm-77 -124c1,2 1,3 2,4 4,-4 8,-9 12,-13 -2,-1 -3,-1 -4,-1 -3,0 -5,1 -7,3 -2,2 -3,5 -3,7zm-25 39c-1,0 -3,0 -4,0 -3,0 -5,2 -6,4 -2,2 -3,5 -2,8 0,1 1,2 2,3 3,-4 6,-9 10,-15zm34 -64c-7,0 -13,3 -18,8 -4,6 -6,12 -5,19 0,5 3,10 7,14 1,-2 3,-4 4,-6 -2,-3 -3,-6 -4,-9 0,-4 1,-9 4,-12 3,-4 8,-6 12,-6 4,0 7,0 9,2 2,-2 4,-4 6,-6 -5,-3 -10,-4 -15,-4zm490 255c5,-5 10,-11 16,-16 8,-8 13,-13 17,-17 2,-2 5,-4 6,-5 0,0 0,0 -1,-1l0 0c0,0 0,0 -1,-1 0,0 0,0 0,0 0,0 0,-1 -1,-1 0,0 0,-1 -1,-1 0,0 0,-1 -1,-1 0,0 0,-1 0,-1 0,0 0,0 -1,0 0,0 0,-1 0,-1l0 0c-1,-1 -1,-1 -1,-1l0 0c-1,2 -2,4 -4,7 -3,4 -7,10 -14,20 -5,7 -10,13 -14,19zm17 -58c-4,3 -9,8 -18,15 -6,6 -13,11 -19,16 6,-4 13,-8 20,-12 9,-5 16,-9 20,-11 2,-1 5,-2 7,-3l0 0c0,-1 -1,-1 -1,-2 0,0 0,0 0,0 0,-1 0,-1 -1,-1 0,-1 0,-1 0,-1 0,0 0,0 0,-1 0,0 0,0 -1,0 0,-1 0,-1 0,-1 0,0 0,-1 0,-1 0,0 -1,0 -1,-1 0,0 0,0 0,0 0,0 0,-1 0,-1l0 0c-1,-1 -1,-1 -1,-2 -1,2 -3,4 -5,6zm-213 -48c3,-2 6,-3 9,-3 -3,-1 -6,-3 -7,-5 -1,-1 -2,-3 -3,-4 0,5 -1,10 -2,15 1,-1 2,-2 3,-3zm-2 29c2,-3 5,-4 8,-4 -3,-1 -5,-2 -7,-5 -1,-1 -2,-2 -3,-3 0,5 0,10 -1,15 1,-1 2,-2 3,-3zm0 28c2,-2 5,-3 8,-4 -3,0 -5,-1 -7,-3 0,0 -1,0 -1,-1 -1,-1 -2,-2 -3,-4 0,6 0,11 1,16 0,-1 1,-2 2,-4zm10 24c-3,0 -6,-1 -8,-3 0,0 0,0 -1,0 -1,-1 -2,-2 -3,-4 1,6 1,11 2,17 0,-2 1,-4 2,-5 2,-2 5,-4 8,-5zm-6 -6c0,0 0,1 0,1 2,1 5,2 7,2 6,-1 11,-6 10,-12 0,-5 -5,-10 -11,-10 -3,0 -5,2 -7,4 -2,2 -3,5 -3,8 0,3 1,5 4,7zm10 34c-3,0 -6,-1 -9,-2 0,0 0,-1 0,-1 -1,-1 -2,-2 -3,-3 1,6 2,11 3,17 0,-2 1,-4 2,-5 2,-3 4,-5 7,-6zm-7 -5c0,0 0,0 0,0 3,1 6,2 8,1 6,-1 10,-6 9,-12 -1,-5 -6,-9 -12,-9 -3,1 -5,2 -7,4 -2,3 -2,5 -2,8 0,3 2,6 4,8zm5 27c1,0 1,1 2,1 2,1 5,2 7,1 6,-2 9,-8 8,-13 -1,-6 -7,-9 -12,-8 -3,0 -6,2 -7,4 -2,3 -2,6 -2,9 1,2 2,5 4,6zm13 4c4,0 8,1 11,4 -2,-4 -3,-8 -4,-12 -1,4 -4,7 -7,8zm60 -62c2,-1 5,-2 7,-3 -2,0 -4,0 -6,1 -12,2 -23,3 -32,2 -10,-1 -17,-3 -23,-7 0,0 -1,-1 -1,-1 -1,-1 -2,-2 -3,-2 1,18 4,37 8,54 1,-1 2,-3 3,-5 4,-7 10,-14 18,-21 8,-6 18,-12 29,-18zm-71 8c4,0 7,2 10,4 -1,-3 -1,-7 -2,-10 -2,3 -5,5 -8,6zm4 27c4,0 8,2 10,4 0,-4 -1,-7 -2,-11 -1,3 -4,6 -8,7zm201 -140c-3,-3 -7,-7 -15,-14 -8,-8 -15,-15 -22,-21 -10,-10 -19,-17 -28,-24 -11,-9 -21,-15 -30,-20 -10,-6 -19,-10 -27,-12 -8,-2 -16,-2 -22,0 -5,1 -9,4 -12,9 -2,4 -2,10 0,15 3,6 7,12 13,18 3,3 5,5 8,7 5,3 10,7 17,11 9,5 20,9 33,14 10,3 21,7 35,10 9,3 19,5 28,7 10,2 16,3 20,4 3,0 4,1 5,0 0,0 -1,-2 -3,-4zm8 2c1,-2 2,-4 3,-6l1 0c0,0 0,-1 0,-1 0,0 0,0 1,0 0,-1 0,-1 0,-1 0,0 0,-1 0,-1 1,0 1,0 1,-1 0,0 0,0 0,0 1,0 1,-1 1,-1 -2,-1 -4,-2 -6,-3 -4,-2 -9,-5 -18,-10 -7,-5 -14,-10 -21,-14 6,5 12,11 19,18 8,7 12,11 15,15 2,2 3,3 4,5zm-158 -97c2,0 3,-1 5,-1 7,-2 15,-2 24,0 9,2 19,6 29,12 2,1 4,2 7,4 -2,-2 -4,-4 -6,-6 -9,-9 -15,-18 -20,-26 -4,-9 -7,-18 -8,-25 0,-2 0,-4 0,-6 -11,15 -22,31 -31,48zm-14 17c-3,1 -7,1 -10,0 3,2 5,5 6,8 1,-3 2,-6 4,-8zm-6 28c-4,11 -8,23 -11,34 1,-1 3,-2 4,-3 6,-4 14,-6 24,-7 9,-1 20,0 31,2 3,0 6,1 9,1 -3,-1 -5,-2 -8,-4 -10,-5 -19,-11 -25,-18 -7,-6 -12,-13 -15,-20 0,-2 -1,-3 -1,-5 -3,7 -6,13 -8,20zm-14 -2c3,2 5,4 6,7 1,-2 2,-4 3,-7 0,0 0,-1 0,-1 -3,1 -6,2 -9,1zm0 25c-2,1 -6,2 -9,2 3,1 6,3 7,6 1,-3 2,-5 2,-8zm-15 29c3,1 5,3 7,6 0,-3 1,-6 2,-9 -3,2 -6,3 -9,3zm111 -12c-12,-4 -24,-7 -34,-9 -11,-2 -22,-3 -30,-2 -9,1 -16,3 -22,7 -5,3 -9,7 -10,12 -1,5 0,10 4,14 2,2 4,5 6,7 3,2 7,4 11,6 8,3 18,6 29,8 10,1 22,2 36,2 11,0 23,0 37,-1 10,-1 19,-2 30,-3 11,-1 17,-2 21,-3 3,0 4,-1 5,-1 0,-1 -2,-2 -4,-3 -4,-2 -9,-5 -18,-9 -9,-4 -18,-8 -27,-12 -12,-5 -23,-10 -34,-13zm-47 48c-12,-2 -22,-4 -30,-8 -5,-2 -9,-5 -12,-7 -3,-2 -5,-5 -7,-8 -2,-1 -2,-2 -3,-4 -4,19 -6,37 -6,56 0,0 0,1 0,1 1,-2 2,-3 4,-4 5,-6 12,-11 22,-15 9,-4 19,-7 31,-9 3,0 6,0 9,-1 -3,0 -6,0 -8,-1zm-69 -9c3,1 6,3 8,6 0,-3 0,-6 1,-9 -3,2 -6,3 -9,3zm6 24c-2,2 -5,4 -8,4 3,1 6,3 8,5 0,-3 0,-6 0,-9zm-9 32c4,0 7,2 9,5 0,-4 0,-7 0,-10 -2,2 -5,4 -9,5zm-10 -6c1,0 1,0 1,1 2,1 4,2 7,2 6,0 10,-5 10,-11 1,-6 -4,-10 -10,-11 -3,0 -5,1 -7,3 -3,2 -4,5 -4,8 0,3 1,6 3,8zm1 -29c1,1 1,1 2,2 1,1 3,2 5,2 6,0 11,-4 12,-9 0,-1 0,-1 0,-2 0,-5 -4,-10 -10,-11 -2,0 -5,1 -7,3 -3,1 -4,4 -4,7 -1,3 0,6 2,8zm3 -28c1,1 2,1 2,2 2,1 3,2 5,2 5,0 10,-3 12,-7 0,-2 0,-3 1,-4 0,-5 -4,-9 -9,-10 -3,-1 -6,0 -8,1 -2,2 -4,4 -5,7 0,3 1,6 2,9zm9 -21c-2,-1 -5,-3 -6,-6 -1,-1 -2,-2 -2,-3 -1,5 -2,9 -3,14 1,-1 2,-2 3,-3 2,-1 5,-2 8,-2zm-3 -7c0,1 1,2 2,2 1,1 3,2 4,2 5,1 10,-1 12,-6 1,-1 1,-2 1,-4 0,-5 -3,-9 -8,-11 -2,0 -5,0 -8,1 -2,2 -4,4 -5,7 -1,3 0,6 2,9zm10 -20c-3,-2 -5,-4 -6,-6 -1,-2 -1,-3 -2,-4 -1,5 -2,9 -4,14 1,-1 2,-2 4,-3 2,-1 5,-2 8,-1zm-3 -8c0,1 1,2 3,3 1,1 2,2 3,2 5,1 10,-1 13,-5 0,-1 0,-3 1,-4 0,-5 -3,-10 -7,-11 -3,-1 -6,-1 -8,0 -3,1 -5,4 -6,7 -1,2 -1,5 1,8zm12 -19c-3,-2 -5,-4 -6,-7 -1,-1 -1,-2 -1,-3 -1,1 -1,2 -2,3 -1,4 -2,7 -3,10 1,-1 2,-1 3,-2 3,-1 6,-2 9,-1zm-3 -8c1,2 2,3 3,4 1,1 2,1 3,1 5,2 11,0 13,-5 0,0 1,-1 1,-2 1,-5 -1,-10 -6,-12 -3,-2 -6,-2 -8,-1 -3,2 -5,4 -6,6 -1,3 -1,6 0,9zm13 -18c-2,-2 -4,-4 -5,-7 -1,-1 -1,-3 -1,-4 -2,4 -4,9 -6,13 1,-1 2,-1 3,-2 3,-1 6,-1 9,0zm-2 -8c1,1 2,3 3,4 1,1 2,1 2,1 6,3 12,1 15,-5 2,-5 0,-11 -5,-14 -3,-1 -5,-1 -8,0 -3,0 -5,2 -7,5 -1,3 -1,6 0,9zm59 -62c-4,1 -7,1 -11,-1 3,3 4,6 4,10 2,-3 5,-6 7,-9zm-27 22c3,3 5,6 5,9 2,-3 4,-5 6,-8 -4,1 -7,1 -11,-1zm37 -34c3,-3 5,-6 8,-9 -4,1 -8,1 -11,-1 2,3 3,6 3,10zm-40 36c-3,-2 -5,-2 -8,-1 -3,0 -5,2 -7,5 -1,2 -2,5 -1,8 1,2 2,4 4,5 0,1 0,1 1,1 5,3 12,1 14,-4 3,-5 2,-11 -3,-14zm-11 22c3,2 5,5 6,8 1,-2 3,-5 4,-8 -3,1 -6,1 -10,0zm-4 -2c-2,-2 -4,-4 -4,-7 -1,-1 -1,-2 -1,-3 -2,4 -4,8 -6,12 1,-1 2,-1 3,-2 3,-1 6,-1 8,0zm15 -24c-3,-2 -4,-5 -5,-8 0,-1 0,-2 0,-3 -2,4 -5,8 -7,11 1,0 2,-1 3,-1 3,-1 6,0 9,1zm0 -17c-1,3 -2,6 -1,9 0,2 2,4 4,6 0,0 0,0 0,0 5,3 12,2 15,-3 3,-4 2,-11 -3,-14 -2,-2 -5,-3 -7,-2 -3,0 -6,2 -8,4zm19 -8c5,4 12,3 15,-1 4,-5 3,-11 -1,-15 -2,-2 -5,-3 -8,-3 -3,0 -5,2 -7,4 -2,3 -3,5 -3,8 1,3 2,6 4,7l0 0zm18 -21c0,0 1,0 1,0 4,3 10,3 14,-1 4,-4 4,-11 0,-15 -2,-2 -5,-3 -8,-3 -3,0 -5,1 -7,3 -2,3 -3,5 -3,8 0,3 1,6 3,8zm21 -5c3,-3 7,-6 10,-9 -4,1 -9,0 -12,-3 2,4 3,8 2,12zm20 -11c-10,8 -19,18 -29,28 2,0 4,-1 6,0 7,0 14,3 22,8 8,5 16,12 24,21 1,2 3,4 4,5 -1,-2 -2,-5 -3,-7 -6,-11 -9,-22 -12,-32 -1,-6 -1,-11 -2,-16 -3,-3 -6,-5 -10,-7zm11 1c1,-1 1,-2 1,-4 0,-3 -2,-5 -4,-7l0 0c-4,-2 -7,-2 -8,-1 -2,0 -3,1 -4,2 5,3 10,6 15,10zm8 60c-8,-9 -16,-16 -23,-20 -7,-5 -14,-8 -19,-8 -6,0 -10,1 -13,5 -3,3 -5,9 -4,15 0,7 3,15 7,23 5,8 11,16 19,25 7,8 16,16 27,25 2,2 5,4 7,6 7,5 14,10 22,15 8,6 16,11 25,17 9,5 14,8 18,10 2,1 3,2 4,2 -1,-1 -1,-2 -2,-5 -2,-4 -5,-10 -10,-19 -5,-10 -10,-19 -15,-28 -8,-13 -14,-24 -21,-33 -7,-12 -15,-22 -22,-30zm63 88c5,9 8,15 10,20 1,2 2,4 2,6 0,0 1,0 1,-1 0,0 0,0 0,0 0,0 1,-1 1,-1 0,0 0,0 0,0 1,-1 1,-1 1,-1 0,0 0,0 1,0 0,-1 0,-1 0,-1 1,0 1,0 1,-1 0,0 0,0 1,0 0,0 0,-1 0,-1 0,0 1,0 1,0 0,0 0,-1 1,-1 0,0 0,0 0,0 0,-1 1,-1 1,-1 0,0 0,0 1,0 -2,-2 -4,-4 -6,-5 -3,-4 -7,-9 -14,-17 -5,-6 -10,-13 -15,-19 4,7 8,15 13,23zm30 6c2,-1 3,-1 3,-3 2,-2 2,-5 2,-8 -1,-4 -4,-6 -5,-7 -2,0 -3,0 -4,0 1,2 1,5 2,8 1,3 2,6 2,10zm-36 48c0,0 0,0 0,0 0,-1 1,-1 1,-2 -2,0 -4,0 -6,-1 -5,0 -11,-1 -21,-3 -8,-2 -17,-4 -25,-7 7,4 15,7 24,11 8,4 14,7 18,9 2,2 4,3 5,4 1,-1 1,-1 1,-2l0 0c0,-1 0,-1 1,-2 0,0 0,0 0,0 0,-1 0,-1 0,-2 0,0 0,0 0,0 1,-1 1,-2 1,-2 0,-1 1,-2 1,-3zm-12 21c-4,1 -11,2 -21,3 -9,1 -18,2 -26,3 8,0 16,1 25,2 10,1 16,1 21,2 2,1 4,1 6,2l0 0c0,-1 0,-1 0,-2 0,0 0,0 0,-1 0,0 0,0 0,-1 0,0 0,0 0,0 1,-1 1,-1 1,-1 0,-1 0,-1 0,-1 0,-1 0,-1 0,-1 0,-1 0,-1 0,-1l0 -1c0,0 0,-1 0,-1l0 0c0,-1 0,-2 1,-3 -2,0 -4,1 -7,1zm-2 16c-5,-1 -11,-2 -20,-3 -11,-1 -21,-2 -30,-2 -14,-1 -26,-1 -37,-1 -14,0 -26,1 -37,3 -12,2 -22,4 -30,8 -9,4 -16,8 -20,13 -5,5 -7,10 -7,15 0,4 2,8 6,11 0,0 1,0 1,0 5,4 12,6 20,7 9,0 19,0 31,-2 10,-2 22,-6 36,-10 11,-4 23,-8 37,-14 9,-4 19,-8 29,-12 10,-5 16,-7 20,-10 3,-1 4,-2 5,-2 -1,-1 -2,-1 -4,-1zm-19 18c-8,3 -16,7 -23,10 7,-2 15,-4 23,-6 10,-2 17,-4 21,-4 3,-1 5,-1 8,-1 0,0 -1,-1 -1,-1 0,-1 0,-1 0,-1 0,0 0,-1 0,-1 0,0 0,-1 0,-1 0,0 0,0 0,-1 0,0 0,0 -1,-1 0,0 0,0 0,0 0,-1 0,-1 0,-1 0,0 0,-1 0,-1 0,0 0,-1 0,-1 0,0 0,0 0,0 0,-1 0,-1 0,-2 0,0 0,0 0,0 0,0 0,-1 0,-1 -2,1 -4,2 -6,3 -5,3 -11,5 -21,10zm22 5c-4,1 -11,2 -21,4 -10,3 -20,5 -30,8 -14,4 -26,7 -37,11 -13,5 -25,10 -36,15 -11,5 -20,11 -28,18 -7,6 -13,12 -16,18 -4,6 -5,12 -3,16 0,2 1,4 3,5 2,2 4,3 6,3 6,2 13,1 22,-1 9,-2 19,-6 30,-12 10,-5 21,-12 34,-21 10,-6 20,-14 33,-24 8,-7 17,-14 26,-21 8,-7 14,-12 17,-15 2,-2 4,-4 4,-4 -1,0 -2,0 -4,0zm-253 64c-16,3 -32,-2 -45,-12 -13,-9 -21,-24 -23,-40 -2,-16 2,-32 12,-45 2,-3 5,-6 8,-9 0,0 1,0 2,0 -4,0 -7,0 -11,0 0,0 1,0 2,0 -2,2 -4,4 -5,6 -22,29 -17,70 12,92 23,18 55,18 77,2 1,1 1,1 1,1 -1,-2 -1,-5 -1,-7 0,0 0,1 0,1 -8,6 -18,10 -29,11zm26 -104c-5,-4 -10,-6 -16,-8 1,0 1,-1 1,-1 -17,4 -33,6 -50,7l0 0c-5,3 -9,8 -13,12 -9,12 -12,27 -11,41 2,15 10,28 22,37 12,9 26,13 41,11 10,-2 20,-6 28,-13 0,0 0,0 0,1 -2,-16 -2,-32 -2,-48 0,-13 1,-26 3,-38 -1,0 -1,1 -1,1 0,-1 -1,-1 -2,-2zm47 -263c-5,-2 -9,-3 -12,-5 -4,0 -9,0 -13,-1 0,1 0,1 0,1 0,0 -1,0 -1,0 0,0 0,1 0,1 0,0 0,0 0,0 0,1 0,1 -1,1 0,1 0,1 0,1 0,0 0,0 0,1l0 0c0,0 -1,1 -1,1 2,0 4,0 7,0 4,1 10,2 19,3 8,1 16,3 23,4 -7,-2 -14,-5 -21,-7zm12 -7c0,-1 0,-3 -1,-4 -2,-2 -4,-3 -7,-4 -3,0 -6,0 -8,2 -1,1 -2,2 -2,4 6,0 12,1 18,2zm-91 48l-1 0c0,0 0,0 -1,0 0,0 0,0 0,1 -1,0 -1,0 -1,0 0,0 -1,0 -1,0 0,0 0,0 -1,0 0,0 0,0 0,0 -1,0 -1,0 -1,0 0,0 -1,0 -1,0 0,0 0,0 -1,0 0,0 0,0 0,1 -1,0 -1,0 -1,0 0,0 -1,0 -1,0l-1 0c1,1 2,4 2,6 1,3 2,6 2,10 1,3 1,6 2,9 1,8 1,15 2,22 0,-8 1,-15 1,-23 1,-7 1,-12 1,-16 0,-1 0,-3 1,-4 0,-3 0,-5 1,-6l0 0c-1,0 -1,0 -1,0zm-36 -1c-1,0 -2,-1 -4,-1l0 0c0,-1 -1,-1 -1,-1 0,0 -1,0 -1,0 0,-1 -1,-1 -1,-1 -1,0 -1,0 -1,-1 -1,0 -1,0 -2,0 0,2 -1,4 -2,7 -1,4 -4,10 -8,19 -1,1 -1,3 -2,4 -2,5 -5,10 -7,15 3,-4 6,-9 9,-13 1,-2 2,-4 3,-5 6,-9 10,-14 12,-18 2,-2 4,-4 5,-5zm-38 47c4,-8 8,-15 12,-24 1,-1 1,-2 2,-3 4,-9 6,-15 8,-19 0,-1 1,-3 1,-3 -1,0 -2,1 -3,2 -4,3 -9,7 -17,14 0,1 -1,1 -1,1 -8,7 -15,14 -22,20 -11,10 -19,19 -27,27 -10,10 -18,20 -25,29 -7,9 -13,18 -16,26 -4,8 -6,15 -6,20 0,4 0,8 3,11 1,0 1,0 1,0 3,2 7,2 13,0 6,-2 12,-7 19,-13 7,-6 14,-14 21,-23 6,-9 13,-20 20,-32 6,-10 11,-20 17,-33zm-2 -38c-1,0 -1,1 -2,2 -4,5 -8,9 -12,13 5,-3 9,-7 14,-12 1,0 1,-1 2,-2 8,-7 13,-11 17,-14 2,-2 4,-3 6,-4l0 0c-1,0 -1,0 -1,-1 0,0 -1,0 -1,0 0,0 0,0 0,0 -1,-1 -1,-1 -1,-1 0,0 0,0 0,0 -1,0 -1,-1 -1,-1 0,0 0,0 0,0 -1,0 -1,-1 -1,-1 0,0 0,0 0,0 -1,-1 -2,-2 -3,-3l0 0c0,2 -2,4 -4,7 -2,4 -6,9 -13,17zm35 178c-3,0 -6,0 -9,0 2,1 4,4 5,7 0,-3 2,-5 4,-7zm-46 -13c-1,1 -3,2 -5,3 12,2 23,4 35,4 4,1 9,1 13,1 -1,-1 -3,-3 -4,-4 -3,-5 -5,-12 -7,-21 -1,-8 0,-18 1,-30 0,-1 0,-3 0,-5 0,2 -1,4 -2,6 -4,11 -9,20 -14,28 -5,8 -11,14 -17,18zm-1 9c-3,-1 -7,-1 -10,-2 2,2 4,5 4,9 1,-3 4,-6 6,-7zm24 3c-4,0 -7,-1 -10,-1 2,2 4,5 4,8 1,-3 3,-6 6,-7zm16 11c0,-5 -4,-9 -9,-10 -5,0 -9,4 -10,9 0,3 1,5 2,7 1,0 1,1 2,1 1,1 3,2 5,2 3,0 5,-1 7,-3 2,-1 3,-4 3,-6zm-19 8c-2,-2 -3,-4 -3,-6 -1,2 -2,4 -4,5 -2,2 -4,3 -7,3 6,1 12,1 18,2 1,0 1,0 1,0 -2,-1 -4,-2 -5,-4zm-9 -3c1,-2 3,-4 3,-6 0,-5 -3,-10 -8,-11 -5,0 -10,3 -11,8 0,3 0,5 2,7 0,1 1,1 2,2 1,1 3,1 4,2 3,0 6,-1 8,-2zm-17 0c-1,-2 -2,-4 -2,-7 -1,3 -3,4 -5,6 -2,1 -4,2 -7,2 7,1 13,2 20,3 -3,-1 -4,-2 -6,-4zm-9 -4c2,-2 4,-4 4,-6 1,-5 -2,-10 -7,-11 -5,-1 -9,2 -11,7 -1,2 0,4 1,7 1,1 1,2 2,2 1,1 3,2 4,2 3,1 5,0 7,-1zm-16 -2c-1,-2 -2,-4 -2,-6 -1,2 -3,3 -5,4 -2,2 -5,2 -7,2 6,2 13,4 19,5 -2,-1 -4,-2 -5,-5zm-11 -57c-7,6 -14,11 -20,13 -2,1 -4,2 -6,2 3,2 6,3 9,5 8,4 16,7 25,10 3,1 6,2 9,3 -1,-1 -2,-3 -3,-5 0,-2 0,-3 -1,-5 0,-5 0,-11 1,-18 1,-9 4,-19 9,-29 1,-2 1,-3 2,-5 -1,2 -2,3 -3,5 -8,9 -15,17 -22,24zm-37 15c3,3 4,7 3,11 2,-3 6,-4 10,-4 -4,-2 -8,-5 -13,-7zm34 16c-4,-1 -8,-3 -12,-5 2,3 3,7 3,11 2,-3 5,-5 9,-6zm10 4c3,3 4,6 4,10 2,-3 5,-5 8,-6 -4,-1 -8,-3 -12,-4zm-4 17c2,-1 3,-3 4,-5 1,-4 0,-9 -4,-11 0,0 -1,0 -2,-1 -4,-1 -9,1 -11,6 -1,2 -1,5 0,7 0,1 1,2 2,3 0,0 0,0 1,0 0,1 1,1 2,2 3,1 5,0 8,-1zm-13 2c-1,-1 -3,-3 -3,-5 -1,-2 -2,-4 -1,-7 -2,2 -4,4 -6,5 -2,0 -5,1 -7,0 5,3 11,5 17,7 0,0 1,1 1,1 0,-1 -1,-1 -1,-1zm-11 -11c2,-1 4,-2 5,-5 2,-4 0,-10 -5,-12 -4,-2 -10,0 -12,4 -1,3 -1,5 -1,7 1,2 2,4 4,5 0,0 1,1 1,1 3,1 5,1 8,0zm-16 -5c-1,-2 -1,-4 0,-6 -2,1 -4,2 -6,3 -2,1 -5,1 -7,0 5,3 11,7 17,10l0 0c-2,-2 -3,-4 -4,-7zm-7 -6c2,-1 4,-2 6,-5 2,-4 1,-10 -4,-12 -4,-3 -9,-1 -12,3 -2,2 -2,4 -2,6 1,3 2,5 4,6 0,0 0,0 1,1 2,1 5,1 7,1zm26 -87c-1,1 -3,2 -4,3 -9,8 -18,14 -27,18 -8,5 -16,7 -23,8 -2,0 -4,0 -6,0 8,9 17,17 27,25 2,2 5,3 7,5 0,-2 0,-4 0,-6 0,-6 2,-14 6,-22 4,-9 10,-18 17,-27 1,-2 2,-3 3,-4zm-57 39c3,4 3,10 1,14 4,-3 9,-3 13,-1 -5,-4 -10,-9 -14,-13zm21 19c-1,-1 -2,-2 -3,-2 3,3 4,8 2,12 3,-3 8,-4 12,-3 -4,-2 -7,-5 -11,-7zm-5 22c-1,-2 0,-5 0,-7 -1,2 -3,3 -6,3 -2,0 -5,0 -7,-1 1,1 1,1 2,1 4,4 9,7 14,11 -1,-2 -3,-4 -3,-7zm-6 -7c2,-1 4,-2 6,-4 3,-4 2,-10 -2,-13 -4,-3 -10,-2 -13,2 -2,1 -2,4 -2,6 0,3 1,5 3,7l1 0c2,1 4,2 7,2zm-15 -9c0,-2 1,-4 2,-6 -2,1 -4,2 -7,2 -2,0 -4,-1 -6,-2 4,5 9,9 14,13 -2,-2 -2,-4 -3,-7zm-5 -8c3,0 5,-1 6,-3 4,-3 4,-9 0,-13 -3,-3 -9,-3 -13,0 -2,2 -3,4 -3,6 0,3 1,6 3,7 0,1 1,1 1,1 2,2 4,2 6,2zm-13 -10c0,-2 1,-4 2,-6 -2,1 -4,1 -7,1 -2,0 -4,-1 -5,-2 3,5 7,9 11,14 -1,-2 -1,-4 -1,-7zm-4 -8c2,0 4,-1 6,-3 4,-3 5,-9 2,-12 -3,-4 -9,-5 -13,-2 -2,1 -4,3 -4,6 0,2 0,5 2,7 0,1 1,1 2,2 1,1 3,1 5,2zm-12 -12c0,-2 1,-4 2,-6 -1,1 -3,1 -5,1 0,1 -1,2 -2,3 1,3 3,5 5,8 -1,-2 -1,-4 0,-6zm7 -17c-2,3 -4,5 -6,8 1,0 1,-1 2,-1 2,-2 4,-4 4,-7zm27 -36c4,-4 9,-8 13,-12 -1,-1 -2,-1 -4,-1 -2,0 -5,1 -7,2 -2,2 -3,5 -3,7 0,2 0,3 1,4zm-23 33c0,3 -1,8 -4,11 6,-3 12,-1 15,3 4,5 4,11 0,16 5,-3 11,-2 15,1 -5,-5 -10,-11 -15,-17 -4,-5 -7,-10 -11,-15 0,0 0,0 0,1zm19 15c1,1 1,1 1,1 3,2 7,3 11,2 6,0 13,-3 21,-7 8,-4 17,-10 26,-18 9,-7 18,-15 28,-26 8,-8 16,-17 26,-28 6,-7 12,-14 18,-21 1,-1 1,-2 2,-2 7,-8 11,-13 13,-17 1,-2 2,-3 3,-4 -1,1 -3,1 -4,2 -5,2 -10,5 -19,9 -2,1 -4,2 -6,3 -8,4 -15,8 -22,12 -13,7 -23,13 -33,20 -12,7 -22,14 -31,21 -9,8 -17,15 -23,22 -6,7 -10,14 -12,19 -1,4 -2,9 1,12zm164 -80c-1,2 -2,4 -3,6 -5,7 -9,13 -14,20 -8,12 -14,22 -19,32 -7,13 -12,23 -17,33 -4,11 -7,21 -8,29 -1,4 -1,8 -1,11 0,4 0,7 1,9 1,3 2,6 4,8 1,0 2,1 3,1 4,1 9,0 14,-4 5,-3 10,-9 15,-17 5,-7 9,-16 14,-27 4,-10 7,-21 11,-34 2,-8 3,-15 5,-24 1,-4 2,-7 2,-11 1,-5 2,-11 3,-16 1,-4 2,-9 2,-13 2,-9 3,-15 3,-20 0,-1 0,-2 0,-3 0,0 -1,2 -3,3 -2,4 -6,9 -12,17zm20 -16c0,4 -1,10 -3,20 -1,5 -2,10 -2,15 -1,2 -1,4 -1,6 0,-2 1,-3 1,-5 2,-6 4,-11 6,-17 3,-9 5,-15 7,-19 1,-3 2,-5 3,-6l0 0c-1,0 -1,0 -2,0 0,0 -1,0 -1,0 -1,0 -1,0 -1,0 0,0 0,0 -1,0 0,0 0,0 0,0 -1,0 -1,0 -2,-1l0 0 -1 0 0 0c-1,0 -1,0 -1,0 0,0 -1,0 -1,0 0,0 -1,0 -1,0 0,2 0,4 0,7zm13 2c-2,4 -4,10 -8,19 -2,6 -4,12 -6,18 0,1 0,1 0,2 -1,3 -2,6 -3,8 -4,13 -7,24 -10,35 -3,13 -5,25 -6,35 -2,11 -2,20 -1,29 1,7 3,14 6,18 1,2 3,3 4,4 2,1 4,2 7,2 3,0 8,-3 12,-7 4,-5 7,-11 10,-20 3,-8 5,-18 6,-28 1,-11 1,-22 1,-35 -1,-8 -1,-16 -2,-25 0,-3 -1,-6 -1,-9 -1,-9 -2,-19 -3,-28 -1,-2 -1,-3 -1,-4 -1,-7 -2,-12 -2,-15 -1,-2 -1,-3 -1,-4 -1,1 -1,3 -2,5zm-7 194c-2,2 -3,3 -5,4 6,-1 12,-1 18,-2 -3,0 -5,-1 -6,-3 -2,-1 -3,-3 -4,-5 -1,2 -1,4 -3,6zm6 -10c0,3 1,5 3,7l0 0c2,1 5,2 7,2 3,-1 5,-2 7,-4 1,-2 2,-5 1,-7 -1,-5 -5,-8 -10,-8 -5,1 -9,5 -8,10zm15 11c5,-1 11,-2 16,-3 -1,-1 -3,-1 -5,-2 0,-1 0,-1 0,-1 -2,-1 -3,-3 -4,-5 0,3 -1,5 -3,7 -1,2 -2,3 -4,4zm13 -9c0,1 0,1 0,1 2,1 5,2 7,1 3,-1 5,-2 6,-4 2,-2 2,-5 1,-7 -1,-5 -6,-8 -11,-7 -4,1 -8,6 -7,11 1,2 2,4 4,5zm-29 -20c-1,2 -2,3 -4,4 17,-1 33,-4 49,-9 -1,0 -3,-1 -4,-2 -5,-4 -9,-10 -13,-17 -4,-8 -7,-17 -9,-28 0,-2 0,-4 -1,-6 0,2 0,5 0,7 -1,11 -4,21 -6,30 -3,9 -7,16 -12,21zm1 9c-3,0 -6,0 -9,0 3,2 4,4 5,7 1,-3 2,-6 4,-7zm16 -3c2,2 4,4 5,6 0,-2 1,-5 2,-7 -2,1 -5,1 -7,1zm23 -4c2,1 4,3 6,5 0,-2 0,-5 2,-7 -3,0 -5,1 -8,2zm-46 17c0,-5 -4,-9 -9,-9 -5,1 -9,5 -9,10 0,2 1,5 3,6 0,1 0,1 0,1 2,1 4,2 7,2 2,0 5,-1 6,-3 2,-2 3,-5 2,-7zm-18 10c-1,-2 -3,-4 -3,-6 -1,2 -2,4 -4,6 -1,1 -3,3 -6,3 7,0 13,0 19,0 -2,-1 -4,-2 -6,-3zm85 -233c0,1 0,1 -1,1 0,0 0,0 0,0 -1,1 -1,2 -2,2 2,1 4,1 6,2 4,2 9,4 18,8 7,4 14,8 20,11 -6,-4 -11,-9 -18,-14 -7,-5 -11,-9 -14,-11 -2,-2 -4,-4 -5,-5l0 0c0,0 0,1 0,1 -1,0 -1,1 -1,1 0,0 0,0 0,1 0,0 -1,0 -1,0 0,0 0,1 0,1 0,0 -1,0 -1,0 0,1 0,1 0,1 0,0 0,1 -1,1 0,0 0,0 0,0zm18 18c-8,-4 -13,-7 -17,-8 -2,-1 -3,-2 -4,-2 0,1 1,2 2,4 2,4 5,8 10,16 5,8 10,15 15,22 7,10 13,19 20,26 2,3 3,5 5,7 8,-12 16,-24 24,-35 0,0 0,0 -1,-1 -8,-5 -17,-10 -29,-17 -8,-4 -15,-8 -25,-12zm-14 12c-4,-7 -7,-12 -9,-16 -2,-2 -2,-3 -3,-5 0,0 -1,1 -1,1l0 0c-1,1 -1,1 -2,1l0 1c0,0 -1,0 -1,1 0,0 0,0 0,0 -1,0 -1,1 -2,1 0,0 -1,1 -2,1l0 0c0,1 -1,1 -2,2 2,0 4,2 5,3 4,3 8,7 14,13 6,6 11,11 17,17 -5,-6 -9,-13 -14,-20zm30 -35c-10,-2 -16,-2 -20,-3 -2,0 -4,0 -5,0 1,1 2,2 3,3 3,3 7,6 14,12 2,1 4,2 5,3 6,5 12,9 17,13 11,7 19,13 28,19 1,0 1,0 2,1 2,-3 4,-6 6,-8 7,-9 15,-17 22,-25 -3,-1 -6,-2 -10,-3 -10,-2 -21,-5 -34,-7 -9,-2 -18,-4 -28,-5zm11 95c-2,-3 -4,-6 -7,-9 -6,-8 -13,-16 -21,-25 -7,-7 -13,-13 -19,-19 -6,-6 -11,-10 -14,-13 -2,-2 -3,-2 -3,-3 0,1 0,2 0,5 1,4 2,9 5,18 2,10 5,18 7,27 4,12 7,22 11,31 4,12 9,22 14,30 1,3 2,5 3,6 7,-16 15,-33 24,-48zm-69 -69c-1,0 -3,1 -4,2l0 0c-1,0 -1,0 -1,0 0,0 0,0 -1,0 0,1 0,1 -1,1 0,0 0,0 0,0 0,0 -1,0 -1,0 0,1 0,1 0,1 -1,0 -1,0 -1,0 0,0 -1,0 -1,0l0 0c0,0 -1,0 -1,1 0,0 0,0 1,0 1,1 2,3 3,5 2,3 4,8 8,16 4,7 7,14 10,21 -2,-7 -4,-15 -6,-23 -2,-9 -4,-14 -5,-18 0,-3 0,-5 0,-6zm37 114c-1,-2 -2,-4 -3,-6 1,2 1,5 2,7 0,1 0,2 0,4 1,5 2,11 2,16 1,-1 1,-2 1,-2 1,-3 3,-7 4,-10 -2,-3 -4,-6 -6,-9zm-6 2c0,-1 0,-1 -1,-2 -2,-9 -4,-19 -9,-30 -3,-9 -7,-19 -12,-31 -4,-8 -8,-16 -12,-24 -4,-9 -6,-13 -8,-17 -1,-1 -2,-2 -2,-3 -1,0 -1,0 -1,0 0,0 0,0 0,1 0,1 0,2 -1,4 0,4 0,10 -1,19 0,10 -1,19 -1,29 0,6 0,11 0,16 0,7 0,13 0,18 1,13 2,24 4,34 2,11 5,19 8,26 3,7 7,12 11,16 1,0 1,0 1,0 4,3 8,4 12,3 3,-2 7,-4 9,-8 2,-6 3,-12 5,-17 0,-2 0,-4 1,-6 0,-8 -1,-18 -3,-28zm-19 76c1,2 2,4 4,5 0,0 0,1 1,1 1,0 2,1 3,1 1,-6 3,-12 4,-18 -2,-1 -3,-1 -5,0 -5,1 -8,6 -7,11zm3 9c0,0 -1,-1 -1,-1 -2,-1 -3,-3 -4,-4 0,2 0,5 -2,7 -1,1 -2,3 -3,4 5,-2 10,-3 15,-4l0 -1c-2,0 -4,0 -5,-1zm-97 19c-28,-2 -55,-7 -79,-17 -8,-3 -15,-6 -22,-9 -32,-16 -59,-38 -80,-65 -3,-4 -5,-7 -8,-11 0,1 -1,2 -2,3 3,3 5,6 7,10 22,27 49,49 81,65 31,15 65,24 102,26 34,2 68,-2 101,-12 0,0 1,-1 1,-2 -34,10 -67,13 -101,12zm-113 79c3,0 5,0 7,0l0 0c0,-1 0,-2 0,-3 0,1 0,1 0,1 -2,1 -4,1 -7,2zm-74 -5c1,5 8,7 12,8 9,2 21,2 34,-1 -16,-1 -32,-7 -38,-13 -1,-1 -1,-2 -2,-2 0,0 0,0 0,0 -1,3 -6,5 -6,8zm11 11c-11,-2 -19,-6 -27,-14 -2,-2 -4,-5 -5,-8 0,-3 0,-6 2,-8 2,-3 4,-5 7,-5 5,-1 10,2 11,7 1,2 0,4 -1,6 -2,2 -6,5 -8,1 0,-2 1,-2 2,-3 1,-1 2,-2 2,-3 1,-3 -2,-5 -5,-5 -4,1 -7,5 -6,9 0,3 2,5 4,7 2,1 5,2 8,1 3,-1 6,-3 8,-6 1,-1 2,-2 2,-4 0,-2 0,-4 0,-5l0 0c-1,-7 -6,-12 -11,-15 -6,-3 -15,0 -19,6 -4,6 -6,12 -4,18 1,7 6,14 13,19 20,14 50,8 67,1 -16,3 -29,3 -40,1zm123 33c-2,1 -5,2 -7,2 0,1 1,3 1,5 2,-2 4,-5 6,-7zm-47 -37c1,7 4,13 8,19 2,3 5,6 8,8 2,1 3,3 5,4 5,2 11,3 16,3 5,0 11,-2 16,-5 2,-1 5,-3 7,-5 -1,-2 -2,-4 -3,-6 -2,2 -5,4 -8,5 -4,3 -8,4 -12,4 -4,1 -9,0 -13,-2 -4,-2 -8,-6 -11,-10l0 0c-3,-5 -6,-10 -7,-16l0 0c-1,-6 0,-12 1,-18l0 0 0 0c1,-4 3,-7 6,-10 0,-1 1,-2 2,-3 3,-3 6,-5 10,-7l0 0c4,-1 9,-1 14,0 3,0 6,1 9,2 0,-2 0,-4 0,-6 -3,-1 -5,-2 -8,-3 -6,-1 -11,0 -16,1 -6,2 -10,4 -14,9 -4,4 -7,9 -9,15 -2,7 -2,14 -1,21zm36 15c-2,1 -4,0 -6,-1 -3,-1 -5,-3 -7,-6l0 0c-3,-3 -4,-7 -5,-11l0 0c-1,-4 0,-9 1,-13l0 0 0 0c0,-2 2,-4 3,-6 0,-1 1,-1 1,-2 2,-1 4,-3 6,-3l0 0c2,-1 5,-1 8,0 3,0 6,1 10,3 0,0 0,0 0,0 0,-2 0,-5 0,-7 -3,-1 -6,-2 -9,-3 -4,-1 -8,0 -11,0l0 0c-3,1 -6,3 -9,6 0,0 -1,1 -1,2 -2,2 -4,5 -5,9 -1,5 -1,10 0,15l0 0c0,5 2,10 5,14l0 0c2,2 4,4 6,6 1,1 2,1 4,2 3,2 6,2 10,2 3,0 6,-1 10,-3 3,-2 5,-4 8,-6 -1,-2 -2,-5 -3,-7 0,0 0,0 0,0 -3,3 -5,6 -8,7 -3,2 -5,2 -8,2zm15 -15c-1,-4 -2,-8 -3,-13 0,-1 0,-3 0,-4 -1,-1 -2,-2 -3,-2 -4,-2 -7,-3 -9,-3 -2,-1 -4,-1 -6,0l0 0c-1,0 -2,1 -3,2 0,0 -1,1 -1,1 -1,1 -2,3 -2,5 -1,3 -1,6 -1,10l0 0c1,3 2,6 4,9l0 0c1,1 2,2 3,3 1,1 1,1 2,1 1,1 3,1 4,1 1,0 3,0 5,-1 3,-2 5,-4 7,-6 1,-1 2,-2 3,-3zm-20 -51l0 -1c-2,-1 -4,-2 -6,-3 0,1 -1,3 -2,5 2,-1 5,-1 8,-1zm10 -3c3,1 6,1 9,1 1,-2 1,-5 2,-7 -4,0 -7,0 -10,-1 -4,0 -8,-2 -12,-5l0 0c-3,-2 -6,-6 -7,-10 -2,-4 -3,-9 -3,-14 0,0 0,0 1,0 -3,0 -5,-1 -8,-2l1 0c0,0 0,1 0,1 -1,7 0,13 2,18 3,5 6,9 10,13 4,3 9,5 15,6zm19 -25c-8,-1 -16,-3 -24,-6 0,1 1,1 2,1 0,0 0,1 0,1l0 0c1,2 2,3 3,4l0 0c1,1 3,1 5,2 2,0 5,0 9,0 1,0 2,0 4,-1 0,0 0,0 0,-1 1,0 1,0 1,0zm-15 7c-3,-1 -6,-2 -7,-3l-1 0c-1,-2 -3,-3 -4,-5l0 0c0,-2 -1,-4 -1,-6 1,1 2,1 3,1 -3,-1 -7,-2 -10,-3l0 0c0,4 1,7 2,10 2,3 4,6 6,8l1 0c2,2 6,4 9,4 4,1 7,1 10,1 1,-2 2,-5 3,-7 0,0 0,0 0,0 -5,1 -8,0 -11,0zm-25 15c0,0 0,-1 0,-2l0 1c-3,-4 -6,-8 -8,-13 -2,-4 -3,-8 -4,-12 0,0 1,0 1,0 -2,-1 -3,-3 -4,-4 -5,-5 -9,-9 -14,-12 -4,-2 -9,-4 -13,-4 -4,-1 -8,0 -12,2 -5,2 -9,6 -12,10 -4,5 -7,12 -9,19l0 0c-1,7 -1,14 1,20 1,6 4,11 7,14 1,2 2,3 3,4 3,1 5,2 7,3 4,2 9,2 14,1 6,0 11,-2 17,-5 5,-2 10,-5 15,-9 4,-3 7,-6 9,-9l0 0c2,-2 2,-3 2,-4zm-11 -37c-2,-1 -5,-2 -7,-3 0,0 0,0 1,0 1,2 3,4 5,6l0 0c0,-1 1,-2 1,-3 0,0 0,0 0,0zm179 12c0,0 0,0 1,-1 3,2 6,4 9,6 0,1 0,2 0,2 0,-3 1,-7 1,-10 -4,1 -7,2 -11,3zm-224 -184c-7,-1 -13,2 -18,7 -5,4 -8,11 -8,17 0,6 2,11 5,15 2,-2 4,-4 6,-6 -2,-2 -3,-5 -3,-9 0,-4 2,-8 5,-12 4,-3 8,-5 13,-4 3,0 6,1 8,3 0,0 0,0 1,0 2,-1 4,-3 6,-5 -4,-4 -9,-6 -15,-6zm1 25c-11,10 -21,21 -30,31 3,4 5,8 9,13 0,-2 0,-4 1,-6 2,-7 6,-14 12,-21 6,-7 14,-15 24,-22 1,-1 2,-2 4,-3 -2,0 -3,1 -5,2 -5,2 -10,4 -15,6zm50 -64c-6,-2 -13,0 -19,4 -6,4 -9,10 -10,17 -1,5 1,11 3,15 3,-2 5,-3 7,-5 -2,-3 -3,-6 -2,-9 0,-5 3,-9 7,-11 4,-3 8,-4 13,-3 2,0 4,1 6,2 1,1 1,2 2,2 2,-1 4,-3 7,-4 -4,-4 -8,-7 -14,-8zm-14 27c5,-4 10,-7 15,-11 -1,-1 -2,-1 -4,-2 -2,0 -5,0 -7,2 -3,2 -4,4 -4,7 0,1 0,3 0,4zm72 -58c-7,-2 -14,-2 -20,1 -7,3 -11,9 -13,15 -2,5 -1,11 1,16 2,-2 4,-3 7,-4 -2,-3 -2,-6 -1,-10 1,-4 5,-8 9,-10 5,-2 9,-2 14,-1 1,1 2,2 3,2 2,1 3,3 4,4 2,-1 5,-2 7,-3 -2,-4 -6,-8 -11,-10zm-19 20c-1,2 -1,3 0,4 0,0 1,0 1,0 5,-3 10,-5 15,-8 0,-1 -1,-2 -3,-2 -2,-1 -5,-1 -8,0 -3,2 -4,4 -5,6zm4 8c-24,13 -48,29 -71,48 -4,3 -7,6 -11,9 1,0 2,0 2,-1 10,-5 21,-11 34,-18 9,-6 20,-13 32,-21 5,-4 10,-8 16,-12 3,-2 6,-4 9,-6 6,-5 10,-8 13,-10 -8,3 -16,7 -24,11zm14 3c-3,1 -5,3 -8,5 -3,3 -6,5 -9,7 3,-2 7,-4 11,-6 2,-1 5,-3 7,-4 9,-5 15,-8 20,-9 3,-2 5,-3 7,-3l0 0c-1,-1 -2,-3 -3,-4l0 0c0,0 0,-1 0,-1 -1,0 -1,0 -1,0 0,-1 0,-1 0,-1 0,0 0,-1 0,-1 0,0 -1,0 -1,0 0,-1 0,-1 0,-1 0,0 0,0 0,-1 -1,2 -3,3 -6,5 -3,3 -8,7 -17,14zm63 -50c-5,-3 -12,-5 -19,-3 -7,2 -13,6 -16,12 -3,5 -4,11 -3,16 3,-1 5,-2 8,-3 -1,-3 0,-6 1,-9 1,-1 1,-1 2,-2 2,-3 5,-5 10,-6 6,-2 10,0 13,2 0,0 0,0 1,0 2,2 4,5 5,8 2,-1 5,-1 7,-2 -1,-5 -4,-10 -9,-13zm-22 15c0,0 0,1 0,1 -1,2 -1,3 -1,4 6,-1 12,-3 18,-4 -1,-1 -2,-3 -3,-3 -1,-1 -4,-2 -8,-1 -2,0 -4,1 -6,3zm21 5c-5,1 -10,2 -15,4 1,1 1,1 2,2 2,3 4,5 6,6 2,2 3,3 5,4 5,2 10,3 15,3 5,1 11,0 16,-2 6,-1 11,-4 15,-8 5,-3 9,-8 12,-13 1,0 1,-1 1,-2 -18,1 -37,3 -57,6zm58 -11c-1,-1 -1,-3 -2,-4 -2,-1 -5,-2 -8,-2 -3,0 -5,1 -7,3 -1,1 -1,3 -2,4 7,0 13,-1 19,-1zm8 -14c-5,-5 -12,-7 -19,-7 -7,0 -13,4 -17,9 -4,4 -6,9 -5,14 2,0 5,0 7,0 0,-4 2,-7 4,-9 3,-4 7,-6 12,-6 4,0 8,1 11,3 1,1 1,1 2,1 2,3 3,6 4,9 2,0 5,0 8,0 -1,-5 -3,-10 -7,-14zm-3 19c-1,2 -2,3 -3,5 -3,5 -7,10 -13,14 -5,4 -10,7 -16,9 -6,2 -12,3 -18,2 -6,0 -12,-1 -17,-4 -5,-2 -9,-6 -13,-11 -1,-1 -2,-3 -3,-4 -5,1 -10,3 -15,4 2,4 4,7 6,10 2,3 5,6 9,9 2,1 5,3 8,5 6,3 14,5 21,5 8,0 16,-1 24,-3 4,-1 8,-3 12,-5 3,-2 7,-4 10,-7 7,-5 13,-12 17,-19 2,-3 4,-6 6,-10 -5,0 -10,0 -15,0zm68 -13c-4,-6 -10,-10 -17,-11 -7,-1 -14,1 -20,6 -4,3 -6,8 -7,13 3,1 5,1 8,1 0,-3 2,-6 5,-8 3,-3 8,-4 13,-4 3,1 6,2 8,4 1,1 3,2 4,3 1,3 2,6 2,9 3,1 5,1 8,2 0,-5 -1,-11 -4,-15zm4 20c-6,-1 -11,-2 -17,-3 6,2 13,4 19,6 12,4 23,7 33,10 4,1 8,2 11,2 -15,-6 -30,-11 -46,-15zm45 9c0,-1 0,-2 0,-4 -1,-2 -3,-4 -6,-5 -3,-1 -6,-1 -8,0 -2,1 -3,2 -3,3 6,2 11,4 17,6zm14 -9c-3,-6 -8,-12 -15,-14 -7,-3 -14,-2 -20,1 -5,2 -9,6 -10,11 2,1 5,2 7,3 1,-3 3,-6 6,-7 5,-3 10,-3 14,-1 2,1 4,2 5,3 2,2 4,4 5,7 2,3 2,6 1,9 2,1 4,2 7,3 2,-5 2,-10 0,-15zm-45 77c1,0 2,-1 3,-1 3,0 6,0 9,2 -2,-2 -4,-5 -4,-8 0,-1 0,-2 0,-3 -3,3 -5,7 -8,10zm26 -32c-3,3 -5,6 -8,9 1,0 2,0 3,0 3,-1 6,0 8,2 -2,-3 -3,-5 -3,-8 0,-1 0,-2 0,-3zm20 -18c0,-1 0,-2 1,-3 -3,3 -6,6 -9,9 1,0 1,0 2,0 3,-1 6,0 9,2 -2,-2 -3,-5 -3,-8zm4 -3c0,1 0,2 0,3 0,3 1,5 3,7 4,5 10,5 15,1 0,0 0,0 0,-1 -6,-3 -12,-7 -18,-10zm51 10c-1,-6 -5,-13 -11,-17 -6,-4 -13,-6 -20,-4 -5,1 -10,5 -13,9 3,1 5,3 7,4 2,-3 5,-4 8,-5 3,-1 8,-1 14,3l0 0c0,0 0,0 0,0 4,3 7,7 7,11 0,4 0,7 -2,9 2,2 4,4 6,5 3,-4 4,-9 4,-15zm46 47c1,-7 -1,-14 -6,-20 -5,-5 -12,-8 -19,-8 -5,0 -10,2 -14,6 2,2 4,3 6,5 2,-2 5,-3 8,-3 4,0 7,1 10,3 1,1 2,2 3,3 5,5 5,10 4,13 0,3 -1,6 -3,8 1,2 3,4 4,6 4,-3 7,-8 7,-13zm-28 -12c4,5 8,9 12,14 1,-1 1,-2 2,-4 0,-1 0,-4 -3,-8 -2,-2 -5,-3 -8,-3 -1,0 -2,0 -3,1zm63 68c3,-7 2,-14 -2,-21 -3,-6 -9,-11 -16,-12 -5,-1 -11,-1 -15,2 1,2 3,4 4,7 3,-2 6,-2 9,-2 3,1 5,2 7,3 1,2 3,4 4,6 4,6 3,11 2,14 -1,3 -3,6 -6,7 1,3 2,5 3,7 5,-2 8,-6 10,-11zm-25 -19c3,6 6,11 9,17 1,-1 2,-2 2,-3 1,-2 1,-5 -1,-9 -1,-2 -4,-4 -6,-5 -2,0 -3,0 -4,0zm-53 -55c-4,-5 -9,-9 -14,-13 0,4 1,7 2,11 2,9 6,20 11,31 5,10 11,21 19,33 6,10 13,20 21,31 7,9 13,17 20,25 6,8 10,13 13,16 1,1 2,2 3,3 0,-1 0,-3 -1,-6 0,-5 -2,-12 -4,-22 0,-3 -1,-6 -2,-9 -12,-35 -34,-69 -68,-100zm98 137c4,-6 5,-13 3,-20 -2,-8 -6,-14 -12,-17 -5,-2 -11,-3 -16,-1 1,2 2,4 3,7 3,-1 6,0 9,1 1,1 1,1 2,2 3,1 5,4 6,10 2,5 1,9 -2,13 -2,3 -4,5 -7,6 0,2 0,5 1,8 5,-2 9,-5 13,-9zm-24 33c2,-3 5,-6 8,-8 -1,-6 -1,-11 -2,-17 -6,4 -11,8 -15,14 -6,7 -11,15 -15,25 -3,9 -5,18 -5,28 0,9 1,18 4,26 3,8 7,15 12,21 3,3 6,6 9,8 2,-6 3,-12 5,-18 -1,-1 -2,-2 -3,-3 -4,-5 -8,-10 -10,-17 -2,-6 -3,-12 -3,-19 0,-8 2,-15 4,-22 3,-7 6,-13 11,-18zm9 84c2,-2 3,-4 4,-7 1,-3 0,-5 -1,-8 -1,-1 -2,-2 -4,-2 -1,5 -2,10 -3,14 0,2 0,3 0,4 1,0 2,-1 4,-1zm18 -52c5,-4 8,-11 8,-18 0,-7 -3,-14 -8,-19 -4,-3 -9,-5 -15,-5 1,2 1,5 1,7 3,1 5,2 8,3 0,1 0,1 1,1 2,2 5,6 5,13 0,5 -2,9 -5,13 -3,2 -6,3 -9,3 0,3 -1,5 -1,8 6,0 11,-2 15,-6zm-14 -27c0,6 0,12 0,18 2,0 3,-1 4,-2 2,-1 3,-4 3,-7 0,-4 -2,-7 -3,-8 -1,-1 -2,-1 -4,-1zm-5 -6c-1,1 -3,3 -4,4 -4,5 -7,11 -10,17 -2,7 -3,13 -4,20 0,6 1,12 3,18 2,5 5,10 9,14l0 0c5,-24 7,-48 6,-73zm8 97c6,-3 10,-9 12,-16 1,-7 0,-14 -4,-19 -4,-5 -8,-8 -13,-9 -1,3 -1,5 -1,8 1,0 3,1 4,2 1,1 2,2 3,3 3,4 4,9 3,14 -1,4 -4,8 -8,11 -3,1 -6,2 -9,2 -1,2 -1,5 -2,7 5,1 10,0 15,-3zm-22 6c0,0 0,0 0,0 0,0 0,0 -1,0 0,2 -1,4 -2,8 -2,5 -4,12 -9,23 -3,7 -6,14 -8,21 2,-3 4,-7 6,-10 5,-14 10,-27 14,-42zm-8 42c1,0 2,0 4,0 2,-1 4,-3 5,-6 1,-3 1,-5 0,-8 -1,-1 -2,-2 -3,-3 -2,6 -4,11 -6,17zm9 13c7,-2 11,-7 14,-14 2,-6 2,-13 -1,-19 -2,-5 -6,-9 -11,-11 -1,2 -2,5 -3,7 1,1 2,1 3,2 2,1 3,3 4,5 2,4 2,9 1,13 -2,5 -5,8 -10,10 -3,1 -6,2 -9,1 -1,2 -2,5 -3,7 5,2 10,1 15,-1zm-606 -92c6,0 11,-3 14,-8 3,-8 1,-17 -7,-21 8,4 17,1 21,-7 3,-7 1,-16 -6,-20 7,3 16,1 20,-6 4,-7 2,-16 -5,-21 8,4 17,2 21,-4 5,-7 3,-16 -3,-21 6,4 16,3 21,-4 0,0 0,-1 1,-1 -1,-1 -2,-2 -3,-3 0,1 -1,1 -1,2 -4,5 -11,6 -17,2 -2,-1 -4,-4 -5,-7 0,-4 1,-7 3,-9 1,-2 3,-4 5,-5 0,-1 -1,-2 -2,-3 -2,1 -4,3 -6,5 -3,4 -4,8 -3,12 1,4 3,8 6,10 -4,-2 -7,-3 -11,-2 -5,0 -8,3 -11,6 -2,4 -3,8 -2,12 1,4 3,7 6,10 -3,-2 -7,-3 -11,-2 -4,1 -7,4 -9,7 -3,4 -3,8 -2,12 1,4 3,7 7,9 -4,-2 -8,-2 -11,-1 -1,0 -1,1 -2,1l0 0c-3,1 -6,4 -8,7 -2,3 -2,8 -1,12 1,3 3,5 5,7l0 0 0 0c1,1 2,1 2,1 0,0 -1,0 -2,0l0 0c-3,-1 -6,-1 -9,0 -4,1 -7,4 -9,7 -2,4 -2,8 -1,12 1,4 4,7 7,9 -7,-3 -16,0 -20,7 -4,7 -1,16 6,20 -7,-3 -16,0 -20,7 -4,7 -1,16 6,21 -8,-4 -17,-1 -21,6 -4,7 -2,16 5,20 -7,-4 -16,-2 -21,5 -4,7 -2,16 4,21 -7,-4 -16,-3 -21,4 -5,6 -4,15 3,21 -7,-5 -16,-5 -22,1 -5,6 -5,15 1,21 -6,-5 -15,-6 -21,0 -6,5 -7,14 -3,21 -5,-7 -14,-8 -20,-4 -7,5 -9,14 -5,21 -4,-7 -13,-10 -20,-6 -7,3 -10,12 -8,20 -3,-8 -12,-12 -19,-9 -8,3 -12,11 -9,19 -3,-7 -11,-12 -19,-10 -8,2 -13,10 -11,18 -2,-8 -10,-13 -18,-11 -8,1 -13,8 -13,16 -1,-8 -8,-14 -16,-13 -8,0 -14,7 -14,15 -1,-8 -7,-14 -15,-15 -8,0 -15,6 -16,14 0,-8 -5,-15 -13,-16 -8,-1 -16,4 -18,12 2,-8 -3,-16 -11,-18 -8,-2 -16,3 -18,10 2,-7 -2,-16 -10,-19 -7,-2 -16,1 -19,9 3,-8 0,-17 -7,-20 -8,-4 -16,-1 -21,6 4,-8 2,-16 -5,-21 -6,-4 -15,-3 -20,4 4,-7 3,-16 -3,-21 -3,-3 -7,-4 -10,-4 -4,0 -8,2 -11,4 3,-3 5,-6 4,-10 0,-5 -2,-9 -6,-12 -4,-3 -9,-4 -14,-3 -4,1 -7,4 -9,8 1,-4 0,-9 -3,-12 -3,-4 -8,-5 -14,-5 -5,1 -11,4 -13,8 -2,4 -2,9 0,13 -3,-4 -7,-5 -11,-5 -5,1 -10,6 -12,11 -2,5 -2,11 1,16 2,3 6,5 11,5 -5,1 -8,3 -10,7 -2,4 -2,9 -1,14 2,4 6,8 10,9 4,1 8,1 12,-1 -4,2 -6,5 -6,9 -1,5 0,9 3,13 3,3 7,5 11,5 4,1 8,0 11,-3 -3,3 -5,6 -5,10 0,5 1,9 4,12 3,3 7,5 11,5 4,0 8,-2 11,-4 -3,3 -4,6 -4,10 0,5 2,8 5,11 3,3 7,5 11,5 4,-1 8,-2 10,-5 -2,3 -3,7 -3,11 0,4 2,8 5,10 4,3 8,4 12,4 4,0 7,-2 10,-5 -2,3 -3,7 -3,11 1,4 3,8 6,10 4,3 8,4 12,3 4,0 7,-3 10,-6 -3,4 -3,8 -3,11 1,5 3,8 7,11 3,2 7,3 12,2 3,-1 7,-3 9,-6 -2,3 -3,7 -2,11 1,4 3,8 7,10 4,2 8,3 12,2 4,-1 7,-3 9,-7 -2,4 -2,8 -1,12 1,4 3,7 7,9 4,2 8,3 12,2 4,-1 7,-4 9,-7 -2,3 -2,7 -1,11 1,4 4,7 8,9 3,2 8,3 12,1 3,-1 6,-3 8,-7 -1,4 -2,8 0,12 1,3 4,7 8,8 4,2 8,2 12,1 3,-1 6,-4 8,-7 -1,3 -1,7 0,11 2,4 5,7 8,8 4,2 9,2 12,1 4,-2 7,-5 9,-8 -2,3 -2,7 0,11 2,4 5,7 9,8 4,2 8,2 12,0 3,-2 6,-5 7,-8 -1,3 0,7 2,11 1,4 5,6 9,8 4,1 8,0 12,-2 3,-2 6,-5 7,-8 -1,4 0,8 2,11 2,4 5,6 9,7 4,1 8,1 12,-1 3,-2 6,-6 7,-9 -1,3 0,7 2,11 2,3 6,6 10,7 4,1 8,0 12,-3 3,-2 5,-5 6,-9 -1,4 0,8 3,11 2,4 6,6 10,7 4,0 8,0 11,-3 4,-2 6,-6 7,-9 -1,4 0,7 2,11 3,3 7,5 11,6 4,0 8,-1 11,-3 4,-3 6,-6 6,-10 0,4 1,7 3,10 3,4 7,6 11,6 4,1 8,-1 12,-3 3,-3 4,-7 5,-10 0,4 1,7 4,10 1,2 3,3 5,4l1 -3c-1,-1 -1,-1 -2,-1 -1,-1 -1,-1 -2,-2 -2,-2 -3,-6 -3,-9 1,-5 5,-10 10,-11l0 -3c-7,1 -12,6 -13,13 0,-8 -6,-15 -14,-16 -8,0 -15,5 -17,14 1,-9 -5,-16 -13,-17 -8,-1 -16,4 -17,12 1,-8 -5,-15 -13,-17 -8,-1 -16,4 -18,12 2,-8 -4,-16 -12,-18 -8,-1 -16,3 -18,11 2,-8 -3,-16 -11,-18 -8,-2 -16,3 -19,11 2,-8 -2,-17 -10,-19 -8,-2 -16,2 -19,9 2,-8 -2,-16 -9,-19 -8,-3 -17,1 -20,9 3,-8 -1,-17 -8,-20 -8,-3 -17,0 -20,7 3,-7 -1,-16 -8,-20 -7,-3 -16,0 -20,7 3,-7 0,-16 -7,-20 -7,-4 -16,-1 -20,6 3,-8 1,-17 -6,-21 -8,-4 -17,-2 -21,5 4,-7 2,-16 -5,-20 -7,-5 -17,-3 -21,4 4,-7 2,-16 -5,-21 -6,-5 -16,-3 -21,3 5,-6 3,-16 -3,-21 -7,-5 -16,-3 -21,3 5,-7 4,-16 -3,-21 -6,-6 -15,-5 -21,1 5,-6 5,-16 -1,-21 -6,-6 -15,-6 -21,0 5,-6 5,-15 0,-21 -6,-6 -15,-7 -22,-2 7,-5 7,-14 2,-21 -5,-6 -13,-7 -20,-3 6,-4 9,-12 6,-19 -1,-3 -3,-5 -7,-7 -2,-1 -5,-2 -9,-2 2,-1 5,-2 9,-4 3,-1 5,-3 6,-5 0,-3 0,-5 -1,-8l0 0 0 0c-1,-3 -2,-6 -3,-8 2,2 4,4 7,5l0 0 0 0c2,2 5,3 8,3 2,0 5,-2 7,-4 2,-2 4,-5 6,-8 -1,3 -1,6 -1,9 1,4 3,7 5,9 5,4 14,4 21,-2 -3,3 -5,7 -5,11l0 0 0 0c1,4 3,8 6,11 4,3 8,4 12,4 4,-1 7,-2 10,-5 -2,3 -3,7 -3,11 1,4 4,7 7,10 4,2 8,3 12,2 4,-1 8,-3 10,-6 -2,3 -3,7 -1,11 1,4 4,7 7,9 4,2 9,3 13,1 4,-1 6,-4 8,-7 -1,3 -1,7 0,11 2,4 5,7 9,9 4,1 9,1 13,-1 3,-2 6,-5 7,-8 -1,3 0,7 2,11 2,3 5,6 9,7 5,1 9,1 13,-2 3,-2 5,-5 6,-9 0,4 0,8 3,11 2,4 6,6 10,6 5,1 9,0 12,-3 3,-2 5,-6 6,-9 0,3 1,7 4,10 2,3 6,5 11,5 4,1 8,-1 11,-4 3,-3 5,-6 5,-10 0,4 2,7 4,10 4,3 8,4 12,4 4,0 8,-2 11,-6 3,-3 4,-7 4,-10 0,3 2,7 5,9 4,3 8,4 12,3 5,-1 8,-3 11,-7 2,-3 3,-7 2,-10 1,3 3,6 7,9 3,2 8,2 12,1 4,-1 8,-4 10,-7 2,-4 2,-8 1,-12 1,4 4,7 7,9 4,2 9,2 13,0 4,-1 7,-4 9,-8 1,-4 1,-8 0,-11 2,3 4,6 8,7 4,2 9,1 13,0 4,-2 6,-6 8,-10 1,-4 0,-8 -1,-11 2,3 5,5 9,6 4,1 8,0 12,-2 4,-3 6,-6 7,-11 0,-3 -1,-7 -3,-10 3,3 6,4 10,5 4,0 9,-1 12,-4 3,-3 5,-7 5,-11 1,-4 -1,-8 -3,-11 2,3 6,4 10,4 4,0 8,-2 11,-5 3,-3 5,-7 4,-11 0,-4 -2,-8 -5,-11 4,3 7,4 11,3 4,0 8,-2 11,-6 3,-3 4,-7 3,-11 -1,-4 -3,-8 -6,-10 3,2 7,3 11,2 4,-1 8,-3 10,-7 3,-3 3,-8 3,-12 -1,-4 -4,-7 -7,-9 4,2 8,2 11,1 4,-1 8,-3 10,-7 2,-3 3,-8 1,-12 -1,-4 -3,-7 -6,-9 3,2 7,2 11,1 4,-1 7,-4 9,-7 2,-4 3,-8 1,-12 -1,-4 -3,-7 -7,-9 4,2 8,2 12,1 2,-1 4,-2 6,-4l0 0c1,-1 2,-2 3,-4 1,-4 2,-8 0,-12 0,-1 0,-2 -1,-2l0 0c-1,-3 -3,-5 -6,-6 2,1 5,1 7,1l0 0zm7 -53c1,-1 2,-1 4,-1 3,-1 6,-1 9,1 5,3 8,10 5,16 -3,5 -11,8 -17,5 0,-1 -1,-1 -1,-1 -1,-1 -2,-1 -2,-2l0 0c-1,-1 -2,-3 -3,-4 0,-3 0,-7 1,-10 1,-1 3,-3 4,-4l0 0 0 0zm-3 26c0,0 1,1 1,1 6,3 8,10 5,16 -2,4 -5,6 -10,6l0 0c-2,1 -4,0 -6,-1 0,0 -1,-1 -2,-1 -1,-1 -3,-3 -4,-6 -1,-3 0,-6 1,-9 1,-3 4,-5 7,-6 3,-1 5,-1 8,0l0 0zm-10 73c6,-13 13,-26 20,-39 15,-30 29,-58 45,-83 7,-11 14,-22 23,-32 -2,-1 -3,-3 -4,-4 -9,11 -16,22 -24,34 -16,24 -30,52 -45,82 -4,9 -9,18 -13,26l0 0c-17,32 -34,63 -55,92 -33,45 -69,76 -111,95 -34,15 -70,25 -106,29 -35,3 -69,1 -103,-7 -33,-7 -64,-20 -91,-38 -13,-8 -25,-17 -37,-28 -1,-1 -3,-2 -4,-4 -7,-7 -16,-16 -25,-17 -8,0 -11,4 -13,6 -4,9 3,24 9,32 16,21 35,41 58,62 36,31 80,62 128,88 41,22 83,40 118,51 58,18 117,28 177,32l0 -5c-59,-4 -118,-14 -175,-32 -36,-11 -77,-29 -118,-51 -47,-26 -91,-56 -127,-87 -23,-21 -41,-41 -57,-62 -5,-6 -11,-20 -8,-25 1,-1 2,-3 8,-3 7,0 15,8 21,14 2,2 3,4 5,5 11,11 24,20 37,28 28,19 59,32 93,39 34,8 69,10 105,7 36,-4 72,-14 107,-30 43,-19 80,-50 113,-95 18,-26 34,-53 49,-80l0 0zm135 26c2,-1 5,-2 8,-2 4,-1 9,-1 15,0 6,1 11,2 16,4 5,2 8,4 10,5l-49 -7zm-41 -6c0,0 0,0 1,-1 3,-7 8,-14 15,-19 -3,1 -5,1 -7,2 -15,3 -36,4 -52,-7 -8,-6 -13,-13 -15,-21 -1,-7 0,-15 5,-21 5,-8 15,-11 23,-7 6,3 12,9 13,18 1,2 1,4 0,6l0 0c0,1 1,3 2,4 5,5 16,10 29,12 -8,-3 -15,-8 -20,-14 -7,-7 -12,-16 -14,-27 -3,-10 -3,-22 -1,-33 2,-11 7,-22 14,-30 6,-8 13,-14 21,-19 2,2 4,3 5,4 0,0 -1,0 -1,0 -8,4 -15,10 -21,18 -6,8 -11,18 -13,28 -2,10 -2,21 1,31 2,9 6,18 12,24 6,7 13,11 21,14 7,2 16,3 24,2 5,-1 9,-2 14,-3l0 0c0,-3 0,-6 1,-8 0,0 0,0 0,0 -5,2 -11,4 -16,4 -7,1 -14,1 -21,-1 -7,-3 -13,-7 -18,-12 -5,-6 -9,-13 -11,-22 -2,-9 -2,-18 -1,-28l1 0c1,-9 5,-18 11,-25 5,-7 12,-12 19,-15 1,-1 3,-2 5,-2 2,1 4,2 6,3 -3,1 -6,2 -9,3 -6,3 -12,8 -17,14 -5,7 -9,15 -10,23l0 0c-2,9 -2,18 0,26 2,8 6,14 10,19 5,5 10,9 16,11 5,1 12,2 19,1 5,-1 11,-2 17,-5 0,0 0,1 0,1 1,-4 3,-7 4,-11 0,0 0,1 0,1 -1,0 -2,1 -4,2 -6,3 -12,5 -18,5 -6,1 -11,1 -16,-1 -5,-1 -9,-4 -13,-8 -4,-4 -7,-10 -8,-16 -2,-8 -2,-16 -1,-23l0 0c2,-8 5,-15 9,-21 4,-5 9,-9 15,-12 5,-2 10,-3 15,-2 0,0 1,0 1,0 4,2 8,4 12,6 -32,-16 -58,-38 -80,-65 -2,-3 -4,-6 -6,-9 -12,16 -22,30 -31,43 -5,8 -10,17 -15,26l0 0c-11,19 -21,39 -32,60 -39,78 -81,159 -163,196 -30,14 -62,23 -95,26 -31,4 -61,2 -91,-5 -59,-14 -110,-47 -144,-93 -2,-2 -7,-13 -11,-24 -9,-22 -7,-27 -6,-29 1,-2 2,-3 4,-3l2 0 0 1c4,4 8,8 13,12 34,28 85,22 112,-12 13,-16 19,-34 18,-55 -2,-18 -9,-37 -21,-54 -27,-38 -104,-50 -147,-22 -15,9 -28,21 -39,34 -11,15 -19,30 -24,46 -60,208 227,373 368,417 59,18 120,29 182,33l-2 10c0,-2 -1,-3 -1,-5 -2,0 -5,0 -8,-1 0,6 2,11 6,15 1,1 1,1 2,2l-1 8c-2,-2 -4,-3 -6,-5 -5,-6 -8,-13 -8,-20l0 0c-1,7 -5,13 -11,18 -6,5 -15,8 -23,7 -9,-1 -16,-6 -21,-12 -5,-6 -7,-13 -6,-21l-1 0c-1,7 -6,13 -12,18 -7,4 -15,6 -24,4 -8,-1 -16,-6 -20,-13 -4,-7 -6,-14 -4,-21l-1 0c-2,7 -7,12 -13,16 -7,4 -16,5 -24,3 -9,-3 -16,-8 -20,-16 -3,-7 -4,-14 -2,-21l0 0c-3,7 -8,12 -15,15 -8,4 -17,4 -25,1 -8,-4 -14,-10 -17,-18 -3,-7 -3,-14 -1,-21l0 0c-4,6 -9,11 -16,13 -8,3 -17,3 -25,-1 -7,-4 -13,-11 -16,-19 -2,-7 -1,-14 2,-21l-1 0c-4,6 -10,10 -17,12 -8,2 -17,1 -24,-3 -7,-5 -13,-12 -14,-20 -2,-7 -1,-15 2,-21l0 0c-4,6 -11,9 -18,11 -8,1 -17,0 -24,-6 -7,-5 -12,-12 -13,-21 -1,-7 1,-14 5,-20l0 0c-5,5 -12,8 -19,9 -9,1 -17,-2 -24,-8 -7,-6 -10,-14 -11,-22 0,-8 2,-15 7,-20l0 0c-6,4 -13,7 -20,7 -9,-1 -17,-4 -23,-11 -6,-7 -9,-15 -8,-24 1,-7 4,-14 9,-19l0 0c-6,4 -13,5 -20,4 -9,-2 -17,-7 -21,-14 -5,-8 -7,-17 -4,-26 2,-7 6,-13 12,-17l0 0c-6,3 -14,3 -21,0 -8,-3 -15,-10 -18,-19 -3,-9 -2,-19 2,-27 4,-6 10,-11 17,-13l0 0c-8,1 -15,-1 -21,-6 -7,-6 -11,-14 -11,-24 -1,-9 3,-18 9,-24 5,-5 12,-8 20,-8 0,0 0,0 0,0 -8,-2 -14,-6 -18,-13 -5,-7 -6,-16 -4,-25 1,-2 1,-5 3,-7 1,-2 2,-4 3,-6 3,-4 7,-7 11,-9 7,-3 15,-3 22,-1 0,0 0,0 0,0 -6,-4 -11,-11 -12,-18 -1,-9 2,-19 8,-26 6,-7 15,-12 24,-12 7,0 15,3 20,8l0 0c-4,-6 -5,-14 -4,-21l0 0 0 0c1,-4 3,-8 6,-12l1 0 -1 0c4,-4 8,-8 13,-10 10,-4 20,-4 28,1 7,3 12,9 14,17 0,0 0,0 0,0 0,-8 3,-15 9,-21 6,-6 16,-9 25,-8 10,1 19,6 24,13 4,6 6,14 4,21 1,0 1,0 1,0 3,-7 9,-12 16,-14 9,-3 19,-2 28,4 9,6 15,15 16,25 0,8 -3,16 -9,21l0 0c7,-4 15,-4 22,-1 9,3 16,10 19,20 4,9 3,20 -2,28l0 0 0 0c-4,7 -11,11 -19,12 0,0 0,0 0,1 8,0 15,5 19,12 5,8 6,19 2,29 -4,10 -13,18 -22,20 -8,2 -15,1 -22,-4 0,0 0,0 0,0 5,7 7,14 5,22 -2,10 -9,18 -19,23 -10,4 -21,4 -29,0 -7,-4 -12,-10 -13,-18 -1,0 -1,0 -1,0 0,8 -4,15 -11,19 -8,6 -19,7 -29,4l0 0 0 0c-6,-2 -11,-5 -15,-9 1,1 2,2 2,3 5,6 9,12 14,17 12,-9 29,-9 40,0 6,5 10,12 11,19 0,7 -1,15 -4,21l0 0c4,-6 10,-10 17,-12 7,-2 15,-2 22,1 6,4 12,9 14,17 3,6 3,14 2,21l0 0c3,-7 7,-13 14,-16 6,-4 14,-6 21,-4 7,2 14,6 18,12 5,6 7,13 7,20l0 0c1,-7 4,-13 9,-18 6,-6 13,-9 21,-9 7,0 15,3 21,8 5,5 8,11 10,19l0 -1c0,-7 2,-14 6,-20 4,-6 10,-11 18,-13 7,-1 15,0 22,4 6,4 11,9 14,16l0 0c-4,-15 3,-31 16,-38 13,-5 30,-1 39,12l0 -1c-7,-13 -5,-30 6,-39 5,-5 13,-8 21,-8 7,1 14,3 19,8l0 -1c-5,-5 -8,-11 -9,-19 0,-7 2,-15 6,-21 9,-13 26,-16 40,-9l0 0c-12,-9 -16,-27 -8,-40 3,-7 10,-12 18,-14 7,-2 14,-2 21,1l0 0c-6,-4 -11,-10 -13,-17 -2,-8 -2,-16 2,-24 4,-7 10,-13 18,-15 7,-2 14,-2 21,1l0 -1c-6,-3 -11,-9 -13,-16 -2,-8 -1,-17 3,-24 4,-8 11,-14 19,-16 7,-2 14,-1 20,2l0 0c0,0 1,0 1,0l0 0c0,0 0,0 -1,-1l0 0c-5,-4 -9,-10 -10,-17 -2,-8 0,-17 5,-24 3,-5 7,-9 13,-11l0 0c2,-1 5,-2 7,-3 8,-1 15,1 21,5l0 -1c-5,-4 -8,-11 -9,-18 -1,-9 1,-17 7,-24 6,-7 14,-11 22,-11 8,-1 15,2 20,6l1 0c-5,-5 -8,-12 -8,-20 0,-8 4,-16 10,-22 7,-7 15,-10 24,-9 7,0 14,3 19,9l0 0c-4,-6 -6,-14 -5,-21 1,-9 6,-16 13,-22 7,-5 16,-7 25,-5 7,2 13,5 18,11l0 0c-3,-6 -4,-14 -2,-21 2,-8 8,-15 17,-19 8,-4 17,-5 25,-1 7,2 13,8 16,14l0 0c-2,-7 -1,-15 2,-21 5,-8 12,-14 21,-16 9,-2 18,0 25,5 6,4 11,10 12,17l1 0c-1,-7 2,-14 6,-20 6,-6 14,-10 23,-11 9,0 18,3 24,9 5,5 8,12 9,19l0 0c1,-7 4,-14 10,-18 7,-6 16,-9 25,-7 9,1 17,6 22,13 4,6 6,13 5,20l0 1c2,-7 7,-13 13,-16 8,-5 18,-5 27,-2 8,3 15,10 18,19 3,6 3,14 0,21l0 0c4,-6 10,-11 17,-13 9,-2 18,0 26,5 0,1 1,1 1,1 7,6 12,13 13,22 1,7 -1,14 -6,20l1 0c5,-5 12,-8 19,-8 9,0 18,4 24,11 6,7 9,16 8,24 -1,8 -4,14 -9,19l0 0c6,-3 13,-5 21,-3 8,2 16,8 20,16 5,8 6,18 3,26 -3,7 -8,13 -14,16l0 0c7,-2 14,-1 21,2 8,4 14,12 16,21 2,9 0,19 -5,26 -4,6 -10,10 -17,11l0 1c7,0 14,2 19,7 7,6 11,15 11,24 0,9 -4,18 -11,24 -5,5 -12,7 -19,7l0 0c7,2 13,6 17,12 5,7 7,16 5,25 -2,9 -7,16 -14,20 -7,4 -14,5 -21,4l0 0c7,3 12,8 15,15 4,7 5,16 1,25 -3,8 -9,15 -17,18 -7,3 -14,3 -21,0l0 1c6,3 11,9 13,16 3,7 2,15 -1,22l-7 -1c3,-6 4,-13 2,-19 -2,-5 -6,-9 -10,-12 -1,2 -2,5 -4,7 1,0 1,0 1,0 2,2 4,5 5,8 2,4 1,9 -1,13 0,0 -1,1 -1,2l-9 -1c1,-1 3,-3 4,-5 1,-2 1,-5 1,-7 -1,-2 -2,-3 -3,-4 -2,5 -5,10 -8,15l-11 -2c5,-10 10,-21 16,-33 4,-11 9,-21 13,-33 5,-11 7,-18 9,-23 1,-2 1,-3 1,-4 0,0 -1,1 -3,2 -3,4 -8,8 -16,17 -9,8 -17,16 -24,24 -11,12 -20,22 -28,32 -4,4 -7,8 -10,12l-10 -1c5,-5 9,-10 14,-16 8,-10 17,-20 27,-33 7,-9 13,-18 21,-28 6,-10 10,-16 13,-20 2,-2 2,-4 3,-5 -1,1 -2,1 -4,2 -4,2 -10,5 -19,11 -10,5 -19,11 -29,17 -13,8 -23,15 -33,22 -13,9 -23,17 -32,25 -7,6 -12,11 -17,17l-7 -1c6,-6 12,-13 20,-20 2,-1 3,-3 5,-5 -2,1 -3,2 -5,3 -11,6 -22,10 -31,12 -10,3 -18,3 -24,1 -2,0 -4,-1 -6,-2 1,1 1,1 1,2 0,1 1,2 1,4l-8 -1c-1,-6 -7,-8 -13,-7 -2,1 -4,2 -5,4l-4 -1c2,-2 4,-4 6,-5 -3,0 -6,-1 -8,-2 -1,0 -1,-1 -2,-1 -1,-1 -2,-2 -2,-3 1,4 2,7 3,11l-6 -1c-10,-33 -14,-67 -13,-103 1,-44 9,-89 25,-132 16,-42 39,-81 67,-115 10,-12 20,-23 31,-33 -1,0 -2,-1 -3,-1 -10,10 -20,20 -29,31 -29,35 -52,74 -68,118 -16,43 -25,88 -26,133 0,35 4,69 13,102l-6 -1c0,-1 -1,-2 -1,-4 0,1 0,1 0,1 -1,1 -3,1 -4,2l-12 -2c5,-1 10,-3 15,-5 0,0 0,0 0,0 -2,-9 -4,-18 -6,-28 0,0 0,0 0,0 -24,16 -57,15 -81,-3 -31,-24 -38,-69 -14,-100 1,-1 2,-2 2,-3 2,0 3,0 5,0 -4,0 -8,0 -12,0 -8,0 -16,-1 -24,-2l1 0c-10,18 -14,40 -12,61 4,26 17,49 38,65 2,1 4,3 6,4l-12 -2c-20,-16 -34,-40 -37,-66 -3,-22 1,-44 11,-63l1 0c-2,0 -4,0 -6,-1l0 0c-10,20 -14,42 -11,64 3,25 15,48 33,65l-13 -2c1,0 2,0 2,0 0,0 1,0 1,0 -2,-2 -3,-4 -5,-6 -3,1 -6,2 -9,4 0,0 -1,0 -1,0l-7 -1c1,-1 3,-2 5,-4 3,-1 6,-2 9,-3 -2,-2 -3,-4 -4,-6 -3,1 -6,2 -8,4 -4,2 -8,5 -10,8l-11 -1c-1,-2 -1,-3 -1,-3l0 -1c0,0 -1,0 -1,-1 -5,0 -10,-1 -15,-4 -2,-1 -4,-2 -6,-4 -2,-1 -3,-2 -4,-3 0,0 0,0 0,0 -2,0 -4,0 -6,-1 -6,-1 -12,-1 -17,0 -5,1 -10,3 -13,5 -1,1 -2,2 -3,3l-6 -1c1,-3 3,-5 6,-6 4,-3 9,-5 15,-6 6,-1 12,-1 19,0l0 0c0,0 0,0 0,0 -2,-2 -3,-5 -5,-7l0 0c-5,-1 -10,0 -15,0 -7,2 -13,4 -18,7 -3,2 -6,5 -8,8 -1,1 -1,2 -2,3l-5 -1c1,-2 2,-4 3,-5 2,-4 5,-7 9,-9 5,-4 12,-6 20,-8 4,0 9,-1 14,0 0,0 0,0 0,0 -1,-2 -1,-5 -2,-7l0 0c-4,0 -9,0 -13,1 -9,1 -17,4 -23,9 -7,4 -12,10 -15,18l-6 -1zm-75 -162c1,1 3,2 4,3 1,-2 3,-5 4,-7 -2,-2 -4,-5 -5,-8 0,-1 0,-3 0,-5l0 0c0,0 0,-1 0,-1l0 0c0,-3 1,-5 3,-7 2,-4 6,-6 11,-7 3,0 6,0 9,2 2,-2 3,-5 5,-7 -5,-3 -10,-4 -15,-3 -4,1 -8,2 -11,4l0 0 0 0c-2,2 -4,4 -6,7 -4,5 -5,12 -4,19 1,4 3,7 5,10l0 0zm-2 151c6,-6 14,-9 23,-10 13,-1 25,4 33,13 2,2 4,4 5,6l-5 -1c-1,-1 -1,-2 -2,-2 -8,-9 -19,-13 -30,-12 -8,0 -14,3 -19,7l-5 -1zm-16 -2c8,-15 15,-30 23,-44 15,-30 29,-58 45,-82 7,-11 14,-22 22,-32 1,1 2,2 3,3 1,0 1,0 1,0 -8,11 -15,21 -22,32 -16,24 -30,52 -45,81 -7,14 -14,28 -22,43l-5 -1zm-507 -7c0,1 0,1 0,1l0 0 0 0c21,21 53,27 78,13l1 1 -1 -1c11,-6 20,-14 26,-25 6,-9 9,-20 9,-31 0,-13 -4,-26 -11,-38 -8,-12 -18,-22 -31,-29 -19,-10 -41,-12 -64,-7 -21,4 -42,15 -59,30 -19,17 -33,38 -39,60 -7,23 -4,47 9,69 12,20 19,29 23,32 -11,-17 -18,-36 -19,-55 -1,-18 2,-37 11,-54 18,-36 56,-61 97,-62l0 0c12,-1 23,3 33,10 9,7 14,16 15,27 1,11 -2,21 -8,30 -6,6 -13,11 -22,12 -8,1 -17,-2 -24,-7 -5,-5 -9,-11 -9,-18 -1,-7 1,-14 5,-19 7,-9 21,-11 30,-4 4,3 6,8 6,12 1,5 0,9 -3,13 -3,3 -6,5 -10,5 -3,1 -10,0 -12,-4 -1,-4 3,-7 6,-8 2,0 6,3 8,3 4,0 9,-4 8,-8 0,-4 -2,-7 -5,-10 -8,-6 -19,-5 -25,3 -4,5 -6,11 -5,17 1,6 4,11 8,15 7,5 14,7 22,6 7,-1 14,-5 19,-11 6,-7 9,-17 8,-27 -1,-9 -6,-18 -14,-24 -20,-16 -49,-12 -65,8 -9,12 -14,27 -12,42 2,13 7,24 16,33zm-37 -30c18,-10 18,-32 31,-48 4,-5 8,-9 13,-12 -30,8 -57,29 -71,58 -8,16 -12,34 -10,52 0,9 2,17 5,25 -3,-14 -2,-28 4,-41 5,-13 15,-27 28,-34zm-20 92c0,-2 -1,-4 -1,-5 -2,-16 0,-34 11,-47 5,-6 12,-9 19,-13 14,-7 10,-16 9,-29 0,-1 0,-1 0,-2 -19,5 -35,20 -43,39 -9,22 -6,47 8,70 -1,-3 -2,-10 -3,-13zm327 229c-15,8 -33,9 -52,4 -21,-6 -99,-43 -157,-97l2 -3c115,60 141,44 165,30l2 -1c10,-6 23,-7 36,-3 11,4 20,12 24,22 5,12 4,25 -4,36 -3,3 -6,6 -9,8 -3,2 -5,3 -7,4zm-53 -49c-4,-3 -12,-2 -16,-2 -7,1 -14,2 -21,1 -24,-2 -55,-12 -96,-31 52,34 100,60 137,49 -1,-1 -1,-2 -1,-3 -1,-4 0,-10 -2,-13 0,0 -1,-1 -1,-1zm70 3c-4,-10 -12,-17 -22,-20 -8,-3 -17,-3 -24,-2l0 1c-7,1 -12,6 -16,12 -3,6 -4,13 -2,19 3,11 14,17 25,14 8,-2 13,-11 11,-20 -1,-3 -3,-5 -6,-7 -4,-2 -10,-2 -13,1 -3,4 0,7 -2,10 -2,3 -4,1 -5,-1 0,-2 1,-6 2,-8 2,-3 4,-5 8,-6 4,-1 8,-1 12,1 3,2 6,5 7,10 3,10 -3,20 -13,23 -10,3 -21,-1 -26,-10 -20,6 -44,3 -74,-11 -20,-9 -40,-21 -64,-37 54,44 115,73 134,77 18,5 35,4 49,-3 2,-1 5,-2 7,-4l0 0 0 0c3,-2 6,-4 8,-7 7,-10 9,-22 4,-32zm125 146c-1,3 0,6 2,8 1,1 2,2 2,2 2,2 4,2 6,3 4,0 7,-1 9,-3 3,-2 4,-5 4,-8 1,-7 -4,-13 -10,-13 -7,-1 -13,4 -13,11zm-31 -4c0,3 0,6 2,8 1,1 2,2 3,3 1,1 3,2 5,2 3,1 7,0 9,-2 3,-2 4,-5 5,-8 0,-7 -4,-13 -11,-14 -6,-1 -12,4 -13,11zm-30 -6c-1,3 0,7 1,9 1,1 2,2 3,3 2,1 3,2 5,2 4,1 7,0 9,-2 3,-2 5,-4 5,-8 1,-6 -3,-12 -10,-13 -6,-1 -12,3 -13,9zm-31 -6c0,3 0,6 2,9 1,1 2,2 3,3 1,1 3,2 5,2 3,1 6,0 9,-1 2,-2 4,-5 5,-8 1,-7 -3,-13 -9,-14 -7,-2 -13,2 -15,9zm-29 -8c-1,3 -1,6 1,9 0,2 2,3 3,4 1,1 2,1 4,2 3,1 6,0 9,-1 3,-2 5,-5 6,-8 1,-6 -3,-13 -9,-14 -6,-2 -13,2 -14,8zm-30 -9c-1,3 -1,6 1,9 0,2 2,3 3,4 1,1 2,2 4,2 3,1 6,1 9,-1 3,-1 5,-4 6,-7 2,-6 -2,-13 -8,-15 -6,-2 -13,2 -15,8zm-29 -11c-1,3 -1,7 0,10 1,1 2,3 4,4 1,1 2,2 3,2 3,1 6,1 9,0 3,-2 5,-4 6,-7 3,-6 -1,-13 -7,-15 -6,-3 -13,0 -15,6zm-28 -12c-2,3 -2,7 -1,10 1,2 2,3 4,5 1,0 2,1 3,1 3,2 6,2 9,0 3,-1 5,-3 7,-6 2,-6 -1,-13 -7,-16 -6,-2 -13,0 -15,6zm-28 -13c-2,3 -2,6 -1,9 1,3 2,5 4,6 1,1 1,1 2,1 3,2 7,2 10,1 3,-1 5,-4 6,-6 3,-6 0,-14 -5,-16 -6,-3 -13,-1 -16,5zm-28 -14c-1,3 -2,6 -1,9 1,3 2,5 5,6 0,1 1,1 1,1 3,2 6,2 10,1 3,-1 5,-3 6,-6 3,-6 1,-13 -5,-16 -5,-3 -13,-1 -16,5zm-27 -15c-1,2 -2,6 -1,9 1,2 2,5 4,6 1,1 1,1 2,1 3,2 6,2 9,1 3,-1 6,-3 7,-5 3,-6 1,-13 -4,-17 -6,-3 -13,-1 -17,5zm-26 -17c-1,3 -2,6 -1,9 0,3 2,6 4,7 0,1 1,1 1,1 3,2 6,2 9,1 3,0 6,-2 8,-5 3,-6 1,-13 -4,-16 -6,-4 -13,-2 -17,3zm-25 -17c-2,3 -3,6 -2,9 0,3 2,6 4,7 0,1 1,1 1,1 2,2 6,2 9,2 3,-1 6,-3 7,-5 4,-6 3,-13 -3,-17 -5,-4 -12,-2 -16,3zm-27 -10c0,3 2,6 4,8l0 0c3,2 6,3 9,3 3,-1 6,-3 8,-5 4,-5 3,-13 -2,-17 -5,-4 -13,-3 -17,2 -2,3 -3,6 -2,9zm-25 -20c1,4 2,7 5,9 0,0 0,0 0,0 3,2 6,3 9,3 3,-1 6,-2 8,-5 4,-5 3,-13 -2,-17 -5,-4 -12,-3 -17,2 -2,2 -3,5 -3,8zm-23 -21c0,4 2,7 4,9 0,0 1,0 1,1 2,1 5,2 8,2 3,0 6,-1 8,-4 4,-5 4,-12 -1,-17 -4,-4 -12,-4 -16,1 -3,2 -4,5 -4,8zm-22 -22c0,3 1,6 4,8 0,1 1,1 1,2 2,1 5,2 7,2 3,0 6,-1 9,-3 4,-5 5,-12 0,-17 -4,-5 -12,-5 -17,-1 -2,2 -3,5 -4,9zm-20 -25c0,3 1,7 3,9 0,1 1,2 2,3 2,1 4,2 6,2 3,0 6,-1 9,-3 5,-4 6,-12 2,-17 -4,-4 -12,-5 -17,-2 -3,2 -4,5 -5,8zm-15 -30c-2,3 -2,7 0,10 1,3 2,5 4,6 1,1 2,1 3,2 3,1 6,0 9,-1 6,-4 8,-11 6,-16 -1,-2 -3,-3 -5,-5 -2,-1 -6,-2 -10,-2 -3,1 -6,3 -7,6zm16 -34c-2,-3 -5,-4 -9,-3l0 0 0 0c-3,0 -7,3 -9,8 -2,5 -1,9 1,13 0,0 1,1 2,2 1,1 4,2 6,2 3,-1 6,-2 9,-4 2,-1 4,-2 4,-4 1,-1 0,-3 0,-5 -1,-3 -2,-6 -4,-9zm29 -7c1,-3 0,-6 -2,-9 -3,-2 -7,-4 -11,-3 -5,0 -9,3 -11,6 -2,3 -1,6 0,9 2,2 3,3 5,5 1,0 2,1 2,1 3,2 4,3 6,2 2,0 4,-1 6,-3 2,-2 4,-4 5,-8zm29 8c0,-4 -2,-7 -5,-9 -3,-2 -7,-3 -11,-3 -3,1 -5,3 -7,6 -1,3 -1,6 0,10 0,3 1,5 3,6 4,3 12,3 17,-2 2,-2 3,-5 3,-8zm18 12c-2,-2 -5,-3 -8,-2l0 0 0 0c-3,0 -6,1 -9,3 -2,3 -3,6 -3,9 0,3 2,6 4,9 1,0 1,0 1,0 3,2 6,3 9,2 3,0 6,-1 8,-4 3,-5 3,-13 -2,-17zm27 34c3,-5 2,-12 -3,-16 -6,-3 -13,-2 -17,3 -2,3 -3,6 -2,9 0,3 2,6 5,8 0,0 0,0 0,0 3,2 6,3 10,2 3,-1 5,-3 7,-6zm27 15c3,-6 1,-13 -5,-16 -6,-3 -13,-1 -16,5 -2,3 -2,6 -1,9 1,2 2,5 4,6 1,1 1,1 2,1 3,2 7,2 10,1 3,-1 5,-3 6,-6zm29 11c2,-6 -1,-13 -7,-15 -6,-2 -13,1 -15,7 -2,2 -2,6 0,9 0,2 2,3 3,5 1,0 2,1 4,1 3,1 6,1 9,0 3,-2 5,-4 6,-7zm30 8c1,-7 -3,-13 -9,-14 -6,-2 -12,2 -14,8 -1,3 -1,6 1,9 0,1 2,3 3,4 1,1 3,1 4,2 4,1 7,0 10,-2 2,-1 4,-4 5,-7zm30 5c1,-7 -4,-13 -10,-14 -6,-1 -12,4 -13,10 -1,3 0,6 2,9 0,1 1,2 2,3 2,1 4,2 6,2 3,1 6,0 9,-2 3,-2 4,-5 4,-8zm31 1c0,-7 -5,-12 -11,-12 -7,0 -12,5 -13,11 0,3 1,6 3,9 1,0 1,1 2,1 2,2 4,3 7,3 3,0 6,-1 9,-4 2,-2 3,-5 3,-8zm31 -2c-1,-6 -6,-11 -13,-11 -6,1 -11,6 -11,13 0,3 2,6 4,8 0,0 0,1 1,1 2,2 5,3 8,2 3,0 6,-1 8,-4 2,-2 3,-5 3,-9zm31 -4c-2,-7 -8,-11 -14,-10 -6,1 -11,7 -10,14 0,3 2,5 4,7l0 0c3,2 6,3 10,3 3,-1 6,-3 8,-5 2,-3 2,-6 2,-9zm29 -8c-2,-6 -8,-10 -14,-8 -6,1 -10,8 -9,14 1,3 2,5 5,7 0,0 0,0 1,1 2,1 6,2 9,1 3,-1 6,-3 8,-6 1,-3 1,-6 0,-9zm29 -11c-2,-6 -9,-9 -15,-6 -6,2 -9,9 -7,15 1,2 2,4 4,5 1,1 1,1 2,2 3,1 6,1 10,0 3,-1 5,-3 6,-6 2,-3 2,-7 0,-10zm28 -13c-3,-6 -10,-8 -16,-5 -5,3 -8,10 -5,16 1,2 2,3 3,4 1,1 2,2 3,2 3,1 7,1 10,-1 3,-1 5,-4 6,-7 1,-3 1,-6 -1,-9zm26 -17c-4,-5 -11,-6 -16,-3 -6,4 -7,11 -4,17 1,1 2,2 3,3 1,1 3,2 5,2 3,1 6,0 9,-2 3,-2 5,-5 5,-8 1,-3 0,-6 -2,-9zm7 -21c-5,4 -5,12 -1,17 0,1 1,1 2,2 1,1 3,2 5,2 4,1 7,0 10,-3 2,-2 4,-5 4,-8 0,-3 -1,-7 -3,-9 -5,-4 -12,-5 -17,-1zm21 -20c-4,4 -4,12 1,16 0,1 0,1 1,1 2,2 4,3 7,3 3,0 6,-2 9,-4 2,-3 3,-6 3,-9 0,-3 -2,-6 -4,-8 -5,-4 -13,-4 -17,1zm19 -23c-4,5 -3,12 2,16 0,0 0,1 1,1 2,1 5,2 8,2 3,0 6,-2 8,-5 2,-2 3,-6 3,-9 -1,-3 -3,-6 -5,-8 -6,-3 -13,-2 -17,3zm17 -25c-3,5 -2,12 3,16 0,0 1,1 1,1 2,1 5,2 9,2 3,-1 6,-3 7,-6 2,-2 3,-6 2,-9 -1,-3 -2,-6 -5,-7 -6,-4 -13,-2 -17,3zm16 -26c-3,6 -1,12 3,16 1,0 1,0 1,1 3,1 6,2 9,1 4,-1 6,-3 8,-6 2,-2 2,-6 1,-9 -1,-3 -3,-5 -6,-7 -5,-3 -13,-1 -16,4zm15 -26c-3,5 -1,11 3,15 1,0 1,1 2,1 3,1 6,2 9,1 3,-1 6,-3 7,-6 2,-3 2,-6 1,-9 -1,-3 -3,-6 -6,-7 -6,-3 -13,-1 -16,5zm14 -27c-3,5 -1,11 4,15 0,0 1,0 1,1 3,1 6,1 9,0 4,-1 6,-3 7,-6 2,-2 2,-6 1,-9 -1,-3 -3,-5 -6,-7 -6,-3 -13,0 -16,6zm-542 129l0 0 0 0 0 0zm435 333c4,6 10,9 17,10 6,1 13,-1 18,-5 4,-4 7,-9 8,-14 -2,0 -5,0 -8,-1 -1,4 -2,6 -5,9 -3,2 -8,4 -12,3l0 0c-5,0 -9,-3 -12,-6 -2,-3 -3,-6 -3,-9 -2,-1 -5,-1 -8,-2 0,6 2,11 5,15zm28 -10c-6,-1 -12,-2 -18,-3 1,2 1,3 2,5 1,2 4,3 6,3l0 0c3,0 6,0 8,-2 1,-1 2,-2 2,-3zm-90 -1c3,5 9,9 16,11 6,1 13,0 18,-4 5,-3 8,-8 9,-13 -2,0 -5,-1 -7,-1 -1,3 -3,5 -6,7 -4,3 -8,4 -13,3l0 0c-4,-1 -8,-4 -11,-7 -1,-3 -2,-7 -2,-10 -2,0 -5,-1 -8,-2 0,6 1,11 4,16zm29 -9c-6,-1 -12,-2 -18,-3 0,1 1,3 1,4 2,2 4,3 7,4l0 0c2,1 5,0 7,-1 1,-1 2,-2 3,-4zm-91 -8c4,6 9,10 16,12 6,2 13,1 19,-2 4,-3 8,-7 10,-12 -3,-1 -5,-1 -8,-2 -1,3 -3,5 -6,7 -4,2 -9,3 -13,2 -5,-2 -8,-5 -11,-9 -1,-3 -2,-6 -1,-9 -2,-1 -5,-2 -7,-2 -2,5 -1,10 1,15zm30 -6c-6,-2 -11,-3 -17,-5 0,1 0,3 1,4 1,2 3,4 6,5 2,1 5,0 7,-1 1,-1 2,-2 3,-3zm-89 -16c3,6 7,11 14,13 6,3 13,3 19,0 5,-3 9,-6 11,-11 -2,-1 -5,-2 -7,-3 -2,3 -4,5 -7,7 -4,1 -9,2 -13,0 -5,-2 -8,-5 -10,-9 -1,-3 -1,-7 0,-10 -3,-1 -5,-2 -7,-3 -2,5 -2,10 0,16zm30 -3c-5,-3 -11,-5 -17,-7 0,1 0,3 1,4 1,2 3,4 5,5 3,1 5,1 8,0 1,0 2,-1 3,-2zm-87 -25c2,6 6,12 12,15 6,3 13,3 19,1 6,-2 10,-5 13,-10 -3,-1 -5,-2 -7,-3 -2,2 -5,4 -8,5 -4,2 -9,2 -13,0 -4,-2 -7,-6 -8,-10 -1,-3 -1,-7 0,-10 -3,-1 -5,-2 -7,-4 -2,5 -3,11 -1,16zm30 -1c-5,-2 -11,-5 -16,-8 0,2 0,3 0,5 1,2 3,4 5,5 3,2 5,2 8,1 1,-1 2,-1 3,-3zm-85 -31c2,7 6,12 12,16 5,3 12,4 18,3 6,-2 10,-5 13,-9 -2,-2 -4,-3 -7,-4 -2,2 -4,4 -8,5 -4,1 -8,0 -12,-2 -4,-2 -7,-6 -8,-10 -1,-4 0,-7 1,-10 -2,-1 -5,-3 -7,-4 -2,5 -3,10 -2,15zm30 2c-5,-3 -10,-6 -15,-9 -1,1 -1,3 0,4 0,3 2,5 4,6 2,1 5,2 8,1 1,0 2,-1 3,-2zm-82 -38c1,7 5,13 10,17 6,4 12,5 19,4 5,-1 10,-4 13,-8 -2,-1 -4,-3 -6,-4 -2,2 -5,4 -9,4 -4,1 -9,0 -12,-3 -4,-2 -7,-6 -7,-11 -1,-3 0,-6 2,-9 -3,-2 -5,-3 -7,-5 -3,5 -4,10 -3,15zm30 5c-5,-4 -10,-7 -15,-11 0,1 0,3 0,4 0,3 2,5 4,7 2,1 5,2 7,1 2,0 3,-1 4,-1zm-79 -46c0,7 3,13 9,18 5,4 11,7 18,6 5,-1 10,-3 14,-7 -2,-1 -4,-3 -6,-5 -2,2 -5,4 -9,4 -4,1 -9,-1 -12,-4 -4,-3 -6,-7 -6,-12 0,-3 1,-6 3,-9 -2,-2 -4,-4 -6,-5 -3,4 -5,9 -5,14zm30 8c-4,-3 -7,-6 -10,-9 -2,-1 -3,-2 -4,-3 -1,1 -1,2 -1,4 0,3 1,5 3,7l0 0 0 0c2,2 5,2 8,2 1,0 2,0 4,-1zm-74 -54c-1,6 2,13 6,18 5,6 11,9 18,9 6,0 11,-2 15,-5 -2,-2 -4,-4 -6,-6 -2,2 -5,3 -9,3 -4,0 -9,-2 -12,-6 -3,-3 -5,-8 -4,-13 0,-3 2,-6 4,-8 -2,-2 -4,-4 -5,-6 -4,3 -6,8 -7,14zm28 11c-4,-5 -8,-9 -12,-14 -1,1 -1,3 -1,4 0,3 0,5 2,7 2,3 5,4 7,4 2,0 3,0 4,-1zm-65 -65c-2,7 0,14 3,20 4,6 10,10 17,11 5,1 11,0 15,-3 -1,-2 -3,-4 -4,-6 -3,2 -7,2 -10,1 -4,0 -8,-3 -11,-7 -3,-5 -3,-9 -2,-14 1,-3 3,-6 5,-8 -1,-2 -2,-4 -4,-6 -4,2 -7,7 -9,12zm27 16c-4,-5 -7,-10 -10,-15 -1,0 -2,2 -2,3 -1,3 -1,5 1,8 2,2 4,4 6,5 2,0 3,0 5,-1zm-51 -77c-4,6 -5,13 -2,20 2,7 7,13 14,15 5,2 10,3 15,1 0,-1 0,-1 0,-1 -1,-2 -2,-4 -3,-6 -3,1 -6,0 -9,-1 -5,-2 -8,-5 -10,-10 -2,-7 0,-12 1,-14 1,-2 3,-5 7,-6 0,-3 -1,-5 -2,-8 -5,2 -9,5 -11,10zm21 22c-2,-6 -4,-12 -6,-18 -1,1 -2,2 -3,3 0,2 -2,4 0,8 1,3 3,6 5,7 2,0 3,0 4,0zm-29 -88c-5,5 -8,12 -7,19 0,7 3,14 8,18 5,4 10,6 16,5 -1,-2 -1,-5 -2,-8 -3,0 -6,-1 -9,-3 -3,-3 -5,-7 -6,-12 0,-5 2,-10 5,-13l0 -1c3,-2 6,-3 9,-3 0,-3 0,-6 0,-8 -5,0 -10,2 -14,6zm15 27c-1,-6 -1,-12 -1,-18 -2,0 -3,0 -4,1l0 0c-2,2 -3,5 -3,8 1,3 2,6 4,8 1,1 2,1 4,1zm41 -134c-1,-1 -2,-1 -4,-1l0 0c-2,0 -5,2 -7,4 -3,3 -4,6 -3,8l0 0c0,2 1,3 2,4 3,-5 7,-10 12,-15zm-4 -16c-7,0 -14,4 -19,9 -5,6 -7,14 -6,21 1,5 4,10 8,13 2,-2 3,-4 5,-7 -3,-2 -5,-4 -5,-8l0 0c-1,-3 0,-9 4,-13 4,-4 8,-7 13,-7l0 0c3,0 6,1 8,3 0,0 1,0 1,0 2,-2 4,-3 6,-5 -4,-4 -10,-6 -15,-6zm-23 56c-6,-2 -11,-2 -16,1 -3,1 -6,3 -8,6l0 0c-1,2 -2,3 -3,5 -1,2 -2,4 -2,5 -2,7 -1,15 3,20 3,5 7,8 13,10 0,-3 1,-6 1,-8 -3,-1 -6,-3 -8,-6 -2,-4 -3,-9 -2,-14l0 0c1,-1 1,-2 2,-3l0 0 0 0c1,-2 1,-3 2,-4l0 0 0 0c2,-2 3,-3 5,-4 3,-2 6,-2 10,-1 1,-2 2,-5 3,-7zm-12 16l-1 0 0 1c0,0 0,0 -1,2 0,1 -1,1 -1,2l0 0c-1,3 0,6 1,8 1,2 2,2 3,3 1,-5 3,-10 4,-15 0,-1 1,-2 1,-3 -2,-1 -3,0 -4,0 -1,0 -2,1 -2,2l0 0 0 0zm95 -107c-6,-4 -14,-4 -22,0 -4,1 -7,4 -10,7l0 0 0 0c-3,3 -4,6 -5,9 -1,6 0,11 3,16 2,-2 4,-3 6,-5 -1,-2 -2,-6 -1,-9l0 0 0 0c0,-2 1,-4 2,-5 0,0 0,0 1,0l0 -1 0 0c2,-2 4,-4 7,-5l0 0c6,-3 12,-2 16,0l0 0c0,0 1,0 1,1 2,1 4,3 4,6 3,-1 6,-1 8,-2 -1,-5 -5,-10 -10,-12zm-22 24c5,-3 11,-6 18,-8 -1,-2 -2,-3 -3,-3l0 0c-1,-1 -5,-2 -9,0l0 0c-2,1 -4,2 -5,4l0 0 0 0 0 0 0 0c0,0 0,0 0,0 -1,1 -1,1 -1,3 -1,1 -1,2 0,4zm91 -25c-4,-6 -11,-9 -18,-10 -8,-1 -15,2 -20,7 -4,3 -7,9 -7,14 3,0 6,0 8,0 0,-3 1,-5 3,-7 0,-1 0,-1 1,-2l0 0c3,-2 8,-5 14,-4l0 0c4,0 7,2 10,3 1,1 2,2 3,3 2,3 3,6 2,10 3,0 5,1 8,1 1,-5 -1,-11 -4,-15zm-29 8c0,1 -1,2 -1,3 6,0 13,0 19,1 0,0 0,0 0,0 0,-1 0,-2 -1,-3 -1,-2 -4,-4 -8,-4l0 0c-4,-1 -7,1 -8,2l0 0c0,0 -1,1 -1,1zm93 24l0 0c-1,-7 -6,-15 -13,-19 -7,-5 -15,-6 -22,-4 -5,2 -9,6 -12,11 3,1 5,2 8,3 0,-1 0,-2 1,-2 1,-2 3,-4 6,-4l0 0c3,-2 9,-1 15,2l0 0c0,1 1,1 1,1 5,4 7,9 8,13l0 0 0 0c0,3 -1,5 -2,7 -1,0 -1,1 -1,1 1,2 3,4 5,6 4,-4 6,-9 6,-15zm-33 -7c0,0 0,0 0,1 6,3 11,7 16,11l0 0c1,-1 1,-1 1,-1 1,-1 1,-1 1,-2l0 0 0 0 0 0 0 0c0,-2 -2,-6 -6,-9l0 0c-4,-2 -7,-2 -9,-2l0 0c-1,1 -2,1 -3,2zm64 71l0 0 0 0c4,-6 4,-14 2,-22 -3,-8 -9,-14 -15,-16 -6,-2 -11,-2 -16,1 1,2 3,5 4,7 3,-2 6,-2 9,-1l0 0c1,1 3,2 4,3 3,2 5,5 6,9 2,6 1,12 -1,15l0 0 0 0c0,1 0,1 -1,1 -1,2 -4,4 -6,4 0,3 0,6 1,8 5,-1 10,-4 13,-9zm-22 -24c3,6 5,12 6,19 2,-1 2,-1 3,-2 0,0 0,0 0,0l0 0 0 0 0 -1c1,-1 2,-5 1,-9 -2,-4 -4,-6 -6,-7l0 0c-1,0 -2,-1 -4,0zm-9 93c4,3 10,4 15,3 7,-2 14,-8 17,-16 3,-8 3,-18 -1,-24l0 0 0 0c-3,-5 -8,-8 -13,-9 0,3 -1,6 -1,8 2,1 3,1 5,2 1,1 2,2 2,3l0 0 0 0c3,4 3,10 1,17 -3,7 -8,10 -12,11l0 0c-3,1 -6,0 -9,-1 -1,2 -3,4 -4,6zm11 -12l1 0c1,0 5,-2 6,-7 2,-4 1,-8 0,-10l0 0 0 0 0 0 0 0c0,-1 -1,-2 -3,-2 -1,7 -4,13 -7,19 1,0 2,1 3,0zm-56 56c7,3 15,3 23,-1 8,-3 14,-10 15,-17 2,-6 0,-11 -3,-16 -2,2 -4,4 -6,5 2,3 2,6 2,9l0 0c-1,4 -4,9 -11,12 -7,3 -13,2 -16,1l0 0c-3,-2 -5,-4 -6,-8 -2,1 -5,2 -7,2 1,6 4,10 9,13zm23 -25c-6,4 -12,6 -18,9 0,1 1,2 2,2l0 1c2,0 6,1 10,-1 4,-2 6,-6 7,-7l0 -1c0,0 0,-1 -1,-3zm-78 29l0 0 0 0c8,3 17,2 23,-2l0 0c5,-4 8,-8 8,-14 -2,0 -5,0 -8,-1 0,2 -1,4 -2,6 0,1 -1,1 -2,2l0 0c-3,2 -9,4 -16,2l0 0c-7,-2 -11,-7 -12,-11l0 0c-2,-3 -1,-6 0,-9 -2,-1 -4,-2 -6,-4 -3,5 -4,10 -2,16 3,7 9,13 17,15zm16 -15c0,-1 0,-2 0,-3 -6,-1 -12,-3 -18,-6 -1,2 -1,3 -1,4l0 0c1,2 4,5 8,6l0 0c4,2 8,1 10,0l0 -1c0,0 0,0 1,0zm27 53c-1,-6 -4,-11 -8,-15 -4,-3 -10,-5 -16,-5 -5,0 -11,2 -15,5 2,2 4,4 6,6 7,-5 15,-4 19,0 1,0 1,0 1,0l0 0 0 0c5,4 7,13 3,20 2,2 5,3 7,5 2,-5 3,-10 3,-16zm-28 -4c4,4 8,7 12,11 2,-4 1,-8 -2,-10 -2,-2 -6,-3 -10,-1zm67 20c-5,-3 -11,-3 -17,-1 -5,1 -10,4 -13,9 2,1 4,2 7,4 5,-7 14,-8 19,-5l0 0 0 0c1,0 2,1 2,1 5,3 8,10 7,17 2,1 5,2 7,3 3,-11 -2,-24 -12,-28zm-17 15c5,3 10,5 15,7 0,-4 -2,-8 -5,-9 -2,-1 -7,-1 -10,2zm70 3c-6,-1 -12,0 -17,3 -5,3 -8,7 -10,12 2,1 5,1 7,2 1,-1 1,-2 2,-3 4,-5 10,-8 16,-7l0 0 0 0c2,1 4,2 6,3 3,3 6,8 7,14 2,0 5,0 8,1 -1,-12 -8,-23 -19,-25zm-13 18c0,1 0,1 0,1 1,0 3,1 4,1 4,1 8,2 13,2 -1,-4 -5,-7 -7,-8 -3,0 -7,1 -10,4zm69 -13c-6,0 -11,3 -16,7 -4,4 -6,9 -7,14 2,0 5,0 8,0 0,-2 1,-4 3,-6 3,-4 8,-7 12,-7l0 0 0 0c3,0 7,1 9,3 3,3 6,6 7,10 3,0 5,0 8,-1 -3,-11 -13,-20 -24,-20zm-7 19c0,1 -1,2 -1,3 5,0 11,0 17,-1 -2,-4 -6,-6 -9,-6 -2,0 -5,2 -7,4zm63 -26c-11,3 -18,14 -18,26 3,-1 5,-1 8,-2 0,-4 1,-7 4,-10 2,-3 5,-5 8,-6l0 0 0 0c4,-1 9,0 13,3 2,2 4,4 5,6 3,-1 5,-1 8,-2 -5,-11 -17,-17 -28,-15zm-1 18c-1,1 -2,3 -2,5 5,-1 11,-2 16,-4 -2,-4 -6,-5 -9,-4 -2,0 -4,1 -5,3zm55 -36c-10,4 -15,17 -13,28 3,-1 5,-2 8,-3 -1,-5 0,-10 3,-14 2,-2 3,-3 6,-4l0 0 0 0c4,-2 11,-2 16,3 1,0 2,1 3,2 2,-1 5,-2 7,-4 -7,-9 -20,-13 -30,-8zm4 16c-2,2 -3,4 -2,7 2,-1 4,-2 6,-3 3,-2 6,-3 9,-4 -4,-3 -8,-4 -11,-3 -1,1 -2,2 -2,3zm42 -46c-8,7 -10,20 -4,30 2,-1 4,-3 6,-4 -3,-7 -1,-14 2,-18 0,-1 1,-2 2,-2l0 0 0 0c4,-4 13,-5 20,-1 2,-2 4,-3 5,-5 -9,-7 -22,-7 -31,0zm8 21c4,-3 9,-7 13,-11 -4,-2 -9,-1 -11,1 0,0 0,1 -1,1 -1,2 -2,5 -1,9zm46 -72c-6,1 -12,4 -15,9 -4,5 -5,11 -5,17 1,5 3,10 7,14 2,-2 3,-4 5,-6 -5,-6 -5,-15 -1,-20l0 -1c4,-5 13,-7 20,-4 2,-2 3,-4 4,-7 -4,-2 -10,-3 -15,-2zm-3 28c3,-4 7,-9 10,-13 -4,-1 -8,0 -10,3l0 0c-3,3 -2,7 0,10zm20 -69c-6,11 -3,24 6,31 1,-2 3,-4 4,-6 -6,-6 -7,-14 -4,-21 1,0 1,-1 2,-2 4,-5 11,-7 18,-5 1,-2 2,-5 4,-7 -11,-4 -24,0 -30,10zm14 18c3,-5 6,-10 8,-15 -3,0 -7,1 -9,4 0,0 0,0 -1,1 -1,3 -1,7 2,10zm28 -83c-6,2 -11,6 -14,12 -3,5 -3,12 -1,18 1,5 5,9 9,12 2,-2 3,-4 4,-7 -6,-4 -9,-13 -5,-20 1,-1 1,-2 2,-2 2,-3 4,-5 8,-6 3,-1 6,-1 9,0 2,-2 3,-5 4,-7 -5,-2 -11,-2 -16,0zm1 29c3,-5 6,-10 8,-16 -1,0 -3,0 -4,1 -2,0 -4,1 -5,3 0,0 0,1 -1,1 -2,4 -1,8 2,11zm-486 86c0,-6 1,-11 4,-15 -4,-3 -8,-7 -11,-11 -1,4 3,15 7,26zm519 -157c-3,1 -5,3 -6,5 -1,2 -2,5 -1,7 1,2 1,3 2,4 3,-5 6,-11 9,-16 -1,0 -3,0 -4,0zm-4 -14c-7,2 -12,6 -15,12 -3,6 -4,12 -2,19 2,5 5,9 10,12 1,-2 2,-4 3,-7 -3,-2 -5,-5 -6,-8 -1,-4 0,-8 2,-12 2,-4 6,-7 10,-9 3,0 6,0 9,1 2,-2 3,-5 4,-7 -4,-2 -10,-3 -15,-1zm-561 -18l0 0 0 0 0 0zm178 28l0 0 0 0 0 0zm30 93l0 0 0 0 0 0zm-110 91l0 0 0 0 0 0zm437 118c-6,-6 -9,-14 -10,-23 -1,-8 2,-16 7,-22 3,-4 6,-6 10,-8l-1 5c-2,2 -4,3 -5,5 -5,6 -7,13 -7,20 1,7 3,12 6,17l0 6zm-7 46c-11,-8 -21,-18 -28,-29 -15,-25 -15,-57 1,-80 8,-11 20,-20 33,-23 4,-1 9,-2 13,-2l-1 4c-3,0 -7,1 -11,2l0 0 0 0c-12,3 -23,11 -30,22 -16,21 -16,51 -1,75 7,10 15,19 25,26l-1 5zm-17 120c-36,2 -72,-4 -106,-18 -15,-6 -27,-17 -36,-31 -9,-14 -14,-30 -13,-45 0,-29 18,-52 47,-62 22,-8 45,-6 64,4 16,9 27,23 30,38 2,8 7,14 15,18 3,2 8,3 12,4l0 4c-6,-1 -10,-2 -14,-4 -5,-3 -8,-5 -11,-9 0,7 -2,13 -4,19 -2,4 -3,10 1,13 4,4 10,4 16,5 3,0 6,0 8,0l0 4c-12,0 -24,-2 -35,-5 -10,11 -23,18 -39,19 0,0 -1,0 -1,0 24,9 47,12 71,12l0 4c-4,0 -8,0 -12,0 -26,-1 -51,-7 -77,-18 -3,-1 -6,-3 -8,-4l0 0 0 0c-13,-8 -22,-21 -23,-36 -1,-10 3,-20 9,-28 7,-7 16,-12 26,-13 8,-1 16,2 22,7 6,6 10,13 10,21 1,9 -3,17 -10,22 -3,3 -11,7 -14,3 -3,-3 0,-8 3,-9 3,-2 7,-1 10,-3 5,-2 8,-7 7,-13 0,-7 -4,-13 -9,-18 -5,-4 -12,-6 -19,-6 -9,1 -17,5 -23,12 -6,7 -8,15 -8,24 1,14 9,26 21,33 2,1 5,3 8,4 5,2 11,2 17,2 29,-2 51,-28 49,-57l0 0c-1,-2 -1,-4 -2,-6 -3,-14 -13,-27 -28,-35 -18,-10 -40,-12 -60,-4 -15,5 -26,13 -34,24 -7,10 -11,21 -11,34 0,15 4,30 12,43 9,14 21,24 35,29 33,14 69,20 105,18l-1 4zm-2 17c-59,-3 -118,-14 -175,-32 -35,-10 -76,-28 -116,-50 -48,-26 -91,-56 -126,-87 -23,-20 -42,-40 -57,-60 -5,-7 -8,-15 -8,-19l0 -3 2 0c1,0 1,0 1,0 2,0 4,1 8,4 4,3 8,7 11,10 1,2 3,3 5,5 11,10 24,20 37,28 29,19 61,32 95,40 34,8 70,10 106,6 37,-3 74,-13 109,-29 44,-20 81,-52 115,-98 16,-22 30,-45 43,-69l-2 15c-12,19 -24,39 -37,57 -34,47 -72,79 -117,99 -36,17 -73,27 -110,31 -37,3 -73,1 -108,-7 -35,-8 -67,-22 -97,-40 -13,-9 -26,-19 -38,-29 -1,-2 -3,-4 -5,-6 -3,-3 -7,-6 -10,-9 -1,0 -1,-1 -2,-1 1,3 3,8 6,12 15,20 33,39 56,59 35,31 78,61 125,86 40,22 81,40 115,51 57,17 116,28 175,31l-1 5zm438 -240c3,2 5,4 7,6 2,3 3,5 3,5 0,1 0,2 0,4 -1,1 -2,2 -3,3 0,1 -1,2 -1,2 -3,3 -7,5 -11,7l0 0 0 0c-4,1 -8,1 -12,1 -2,0 -5,-1 -6,-2 -2,-1 -2,-2 -2,-3l-1 0c0,-1 0,-2 0,-5 0,-4 0,-8 2,-12 1,-4 3,-8 5,-12 1,-1 1,-1 1,-1l1 -2 2 1c1,0 1,0 2,0 4,2 8,4 11,6 1,1 2,1 2,2zm-19 8c-1,4 -2,7 -2,10 0,2 0,3 0,3l0 0c0,0 0,0 0,0l1 0c1,1 2,2 4,2 3,0 6,0 10,-1 3,-1 6,-3 8,-5 0,-1 1,-1 1,-2 1,-1 1,-1 2,-2 0,0 0,-1 0,-1l0 0c0,0 -1,-1 -2,-2 -2,-3 -4,-5 -7,-7 -4,-2 -7,-4 -10,-6 -2,4 -4,7 -5,11zm-90 8c0,4 -1,7 -3,10 0,1 0,2 -1,2 -1,2 -3,4 -5,5 -3,2 -7,3 -12,4 -6,0 -12,-1 -17,-3 -6,-2 -11,-6 -15,-10 -3,-3 -5,-7 -6,-11 -1,-3 -1,-6 0,-9 1,-3 2,-5 4,-8 0,0 1,-1 1,-2 3,-3 7,-6 12,-9 5,-3 10,-6 15,-7 5,-2 8,-3 10,-3 1,0 1,0 1,0l0 0 1 0 1 1c0,0 0,0 0,0 2,2 4,5 6,9 3,5 5,10 6,15 2,6 2,11 2,16zm-12 -28c-2,-3 -4,-6 -5,-8 -2,1 -5,1 -9,3 -4,1 -9,3 -13,6 -5,3 -8,6 -11,9 0,0 -1,1 -1,1 -1,2 -3,4 -3,6 -1,2 -1,4 0,7 1,3 3,6 5,9 1,1 3,2 4,3 3,2 6,4 9,5 5,2 10,3 15,2 3,0 7,-1 9,-3 2,-1 3,-2 4,-3 0,0 1,-1 1,-1 1,-2 2,-5 2,-9 0,-4 -1,-8 -2,-13 -1,-5 -3,-10 -5,-14zm-1 33c-1,0 -1,1 -2,2 -2,1 -4,2 -7,2 -4,0 -8,-1 -12,-2 -4,-2 -7,-4 -10,-7 -2,-2 -3,-4 -4,-6 0,-1 0,-2 0,-3 1,-1 1,-2 2,-4l0 0 1 -1 0 0 0 0c2,-2 6,-5 9,-7 4,-3 8,-5 13,-6 0,0 0,0 1,-1l2 0 1 2c0,0 0,0 1,1 2,4 3,8 5,12 1,5 1,9 1,12 0,3 0,4 -1,6 0,0 0,0 0,0zm-4 -6c0,-3 0,-6 -1,-10 -1,-4 -3,-7 -4,-11 -4,1 -8,3 -11,5 -3,2 -6,4 -8,7l0 0c-1,1 -2,2 -2,2 0,0 0,1 1,1 0,1 0,2 2,4 1,0 1,1 2,2 2,1 4,2 6,3 3,1 7,2 10,2 1,-1 3,-1 4,-2 0,0 0,0 0,0 1,0 1,-1 1,-3zm164 96c1,1 1,1 2,2 2,1 4,2 6,2 4,0 7,-1 9,-3 3,-2 4,-5 4,-8 0,-3 -1,-7 -3,-9 -4,-5 -12,-5 -17,-1 -4,4 -5,12 -1,17zm-24 19c1,1 2,2 3,3 1,1 3,2 5,2 3,0 7,0 9,-3 3,-2 4,-5 5,-8 0,-3 -1,-6 -3,-8 -4,-6 -12,-6 -17,-2 -5,4 -6,11 -2,16zm-25 19c1,1 2,2 3,2 1,2 3,2 5,3 3,0 7,-1 9,-2 3,-2 5,-5 5,-8 1,-4 0,-7 -2,-9 -4,-6 -12,-7 -17,-3 -5,4 -6,11 -3,17zm-25 17c0,1 1,2 3,3 1,1 2,2 4,2 3,1 7,0 9,-2 3,-1 5,-4 6,-7 0,-4 -1,-7 -2,-9 -4,-6 -11,-7 -17,-4 -5,4 -7,11 -3,17zm-27 16c1,1 2,2 3,3 1,1 3,2 4,2 3,1 7,1 10,-1 2,-2 4,-4 5,-8 1,-3 0,-6 -1,-9 -4,-5 -11,-7 -17,-4 -5,3 -7,11 -4,17zm-27 14c1,2 2,3 3,4 1,1 2,2 4,2 3,1 6,1 9,-1 3,-1 5,-4 6,-7 1,-3 1,-6 -1,-9 -3,-6 -10,-8 -16,-5 -6,3 -8,10 -5,16zm-28 13c1,2 2,4 4,5 0,0 1,1 3,1 3,2 6,1 9,0 3,-1 5,-4 6,-7 1,-3 1,-6 0,-9 -3,-6 -10,-8 -16,-6 -6,3 -9,10 -6,16zm-29 12c1,2 2,4 4,5 1,1 2,1 3,2 3,1 6,1 9,0 3,-2 5,-4 7,-7 1,-3 1,-6 0,-9 -3,-6 -10,-9 -16,-7 -6,3 -9,10 -7,16zm-29 10c1,3 2,5 4,6 1,1 2,1 2,1 3,2 7,2 10,1 3,-1 5,-3 7,-6 1,-3 1,-7 0,-10 -3,-6 -9,-9 -15,-7 -6,2 -10,9 -8,15zm-29 10c1,2 2,4 4,6 1,0 1,1 2,1 2,1 6,2 9,1 3,-1 6,-3 7,-6 2,-3 2,-6 1,-9 -2,-7 -9,-10 -15,-8 -6,2 -10,8 -8,15zm-30 8c1,2 2,5 4,6 1,0 1,1 1,1 3,2 6,2 10,1 3,-1 5,-3 7,-5 2,-3 2,-6 1,-9 -2,-7 -8,-11 -14,-9 -7,2 -10,8 -9,15zm-30 6c0,3 2,5 4,7 0,0 1,1 1,1 3,2 6,2 9,1 3,0 6,-2 8,-5 1,-3 2,-6 1,-9 -1,-6 -8,-10 -14,-9 -6,1 -10,7 -9,14zm-31 5c1,3 2,6 5,8l0 0c3,2 6,3 9,2 3,0 6,-2 8,-5 2,-2 3,-6 2,-9 -1,-6 -7,-11 -14,-9 -6,1 -11,7 -10,13zm-30 4c0,3 2,6 4,8l0 0c3,2 6,3 9,3 3,-1 6,-2 8,-5 2,-2 3,-6 2,-9 0,-6 -6,-11 -13,-10 -6,1 -11,6 -10,13zm-31 3c0,3 2,6 4,8 0,0 0,0 1,0 2,2 5,3 8,3 3,-1 6,-2 8,-5 2,-2 3,-5 3,-8 -1,-7 -7,-12 -13,-11 -6,0 -11,6 -11,13zm-31 1c0,3 1,6 4,8 0,1 0,1 1,1 2,2 5,3 7,2 4,0 7,-1 9,-3 2,-3 3,-6 3,-9 0,-7 -6,-12 -12,-12 -7,1 -12,6 -12,13zm-31 0c0,3 1,6 3,8 1,1 1,1 2,1 2,2 4,3 7,3 3,0 7,-1 9,-4 2,-2 3,-5 3,-8 0,-7 -5,-12 -12,-12 -6,0 -12,5 -12,12zm190 -325c0,0 -1,0 -3,0 -2,0 -4,-1 -6,-3 -4,-2 -6,-5 -8,-9 -2,-4 -4,-8 -4,-11 0,-4 1,-6 1,-7 1,-1 1,-2 1,-2 1,0 1,0 1,-1 1,0 3,-1 6,-2 3,0 7,0 12,1 4,0 8,1 13,3 0,0 1,0 1,0l2 1 0 2c-1,1 -1,1 -1,2 -1,4 -2,8 -4,13 -2,3 -3,5 -5,8 0,0 -1,1 -2,2 -2,2 -3,3 -4,3zm6 -16c2,-3 3,-7 4,-10 -4,-2 -7,-3 -11,-3 -4,-1 -8,-1 -11,0 -2,0 -2,0 -3,0 0,1 0,1 0,1 0,0 -1,2 0,5 0,2 1,6 2,9 2,3 4,5 6,7 0,0 0,0 1,0 1,1 3,2 4,2 0,0 0,0 0,0 0,0 1,0 3,-2 0,0 1,-1 1,-2 1,-1 3,-4 4,-7zm11 5c2,-4 4,-9 5,-14 0,-3 1,-6 1,-9 -1,0 -4,-2 -8,-3 -5,-2 -10,-3 -15,-4 -5,-1 -9,-1 -13,0 -4,0 -7,1 -9,3 0,0 -1,1 -2,2 -1,1 -1,2 -2,3 -1,3 -1,6 -1,10 0,5 1,10 4,14 2,5 5,8 9,11 0,0 0,1 1,1 3,2 6,3 9,4 3,0 5,0 7,-1 2,-1 4,-2 6,-5 1,-1 2,-2 2,-2 2,-3 4,-6 6,-10zm54 43l1 0 0 0 -1 0zm321 55c7,-1 13,-5 16,-10 4,-6 6,-13 4,-19 -1,-6 -4,-10 -8,-14 -2,3 -3,5 -4,7 2,2 4,5 5,8 1,5 0,9 -3,13 -3,4 -7,7 -11,7 -3,1 -7,0 -9,-1 -2,2 -4,4 -5,6 4,3 10,4 15,3zm-33 20c-2,2 -3,3 -4,5 -3,3 -5,6 -8,9 1,1 3,1 4,1 3,0 5,-2 7,-4l0 0c2,-2 3,-4 2,-7 0,-1 0,-3 -1,-4zm27 -35c1,1 2,1 4,0 2,0 5,-1 6,-4 2,-2 2,-5 2,-7 -1,-2 -1,-3 -2,-4 -4,5 -7,10 -10,15zm-34 65c7,-1 13,-4 17,-9 5,-5 7,-12 6,-18 0,-6 -3,-11 -7,-14 -1,2 -3,4 -5,6 3,2 4,5 4,8 1,5 -1,9 -4,13l0 0c-3,3 -7,6 -11,6 -4,0 -7,-1 -10,-3 -1,2 -3,4 -5,6 4,3 10,5 15,5zm-45 45c7,0 13,-2 18,-7 5,-5 8,-11 8,-18 0,-5 -2,-11 -6,-15 -2,2 -3,4 -5,6 2,3 3,6 3,9 0,4 -1,7 -4,10 0,1 -1,1 -1,2l0 0 0 0c-4,3 -8,5 -13,5 -3,0 -6,-2 -9,-4 -1,2 -3,4 -5,6 4,3 9,5 14,6zm38 -153c1,-2 3,-3 4,-5 -2,1 -3,2 -4,4 -10,9 -19,16 -28,21 -9,5 -16,8 -23,9 -3,0 -5,0 -7,-1 6,8 12,15 18,22 5,6 11,11 17,16 -1,-2 -1,-4 -1,-7 0,-7 3,-17 7,-27 4,-10 10,-21 17,-32zm-102 -19c5,-1 9,0 13,3 -2,-5 -4,-9 -6,-13 0,4 -3,8 -7,10zm97 111c-5,-2 -11,-1 -14,3 -2,3 -3,5 -2,8 0,2 1,3 2,5 4,-5 9,-11 14,-16zm-36 45c1,0 2,1 4,1 2,0 5,-1 7,-3 0,0 1,-1 1,-1 1,-2 2,-4 2,-6 0,-1 -1,-3 -1,-4 -5,4 -9,8 -13,13zm16 -33c0,-3 0,-6 2,-9 -2,2 -5,3 -8,4 -2,0 -5,0 -7,-1 3,2 6,4 9,6 2,2 4,4 7,6 -1,-2 -2,-4 -3,-6zm-7 -9c3,0 6,-1 7,-4 4,-4 3,-11 -1,-15 -4,-3 -11,-3 -15,1 -2,2 -3,5 -3,8 0,3 2,5 4,7 0,1 1,1 1,1 2,2 5,2 7,2zm-15 -10c0,-3 1,-6 2,-8 -2,1 -5,2 -8,2 -2,0 -4,0 -6,-1 4,4 9,9 14,13 -1,-2 -2,-4 -2,-6zm-6 -9c3,0 6,-1 7,-3 5,-5 5,-11 1,-15 -4,-4 -10,-5 -15,-1 -2,2 -3,4 -4,7 0,3 1,6 3,8 1,1 1,1 2,1 2,2 4,3 6,3zm-7 -23c5,-3 12,-3 16,1 0,0 0,0 0,0 -5,-5 -9,-11 -13,-16 2,5 0,11 -3,15zm-7 11c0,-3 1,-6 3,-8 -2,1 -5,2 -8,1 -2,0 -4,-1 -6,-2 4,5 8,10 12,15 -1,-2 -1,-4 -1,-6zm-5 -10c3,0 6,-1 8,-2 4,-4 5,-11 2,-15 -3,-5 -10,-6 -15,-3 -2,2 -4,4 -4,7 -1,3 0,6 2,8 0,1 1,2 2,3 2,1 3,2 5,2zm-5 -24c5,-2 11,-1 15,2 -3,-5 -7,-10 -10,-15 1,5 -1,10 -5,13zm-8 10c1,-3 3,-5 5,-7 -3,1 -6,1 -9,0 -2,0 -4,-1 -5,-2 0,0 0,0 0,0 3,5 6,10 10,16 -1,-3 -1,-5 -1,-7zm-7 -12c1,1 2,2 4,2 3,1 5,0 8,-1 5,-3 6,-10 4,-15 -3,-5 -10,-7 -15,-4 -2,1 -4,4 -5,6 -1,3 0,6 1,9 1,1 2,2 3,3zm2 -22c4,-1 9,0 13,2 -3,-4 -5,-9 -7,-13 0,4 -3,8 -6,11zm-9 9c1,-3 2,-5 5,-7 -3,1 -6,1 -9,0 -1,-1 -3,-1 -4,-2 0,0 -1,-1 -1,-1 3,5 5,11 8,16 0,-2 0,-4 1,-6zm-6 -12c1,1 2,1 3,2 3,1 6,0 8,-1 5,-2 8,-9 5,-14 -2,-5 -8,-7 -13,-5 -3,1 -5,3 -6,5 -1,3 -1,6 0,9 1,2 2,3 3,4zm-6 -14c1,-3 3,-5 5,-7 -3,1 -6,1 -8,-1 -1,0 -2,-1 -3,-1 -1,-1 -1,-1 -2,-2 2,6 4,11 7,17 -1,-2 0,-4 1,-6zm69 67c4,5 4,12 0,17 6,-4 13,-4 18,1 5,4 7,12 3,18 5,-5 13,-6 18,-2 0,-1 0,-1 0,-1 -14,-9 -27,-20 -39,-33zm43 29c2,-2 3,-4 5,-5 2,-2 4,-5 7,-9 -4,3 -8,6 -12,7 -3,1 -5,2 -7,2 2,2 5,3 7,5zm-88 108c7,1 13,-1 19,-5 5,-4 8,-10 9,-17 0,-5 -1,-11 -4,-15 -2,2 -4,3 -6,5 2,3 2,6 2,9 0,5 -3,9 -6,12 -4,3 -8,4 -13,3 -3,0 -6,-2 -8,-4 -3,2 -5,3 -7,5 4,4 9,6 14,7zm12 -27c-4,3 -9,7 -14,11 1,1 3,1 4,1 3,1 5,0 7,-2 3,-1 4,-4 4,-6 0,-2 0,-3 -1,-4zm-65 63c7,1 14,0 19,-4 6,-3 10,-9 11,-15 1,-6 0,-11 -2,-16 -2,2 -5,3 -7,5 2,2 2,6 1,9 0,5 -3,8 -7,11 -4,2 -8,3 -13,2 -3,-1 -6,-2 -8,-5 -2,1 -4,3 -7,4 4,4 8,7 13,9zm15 -26c-5,3 -10,6 -15,9 1,1 2,2 4,2 2,1 5,0 7,-1 3,-1 4,-4 5,-6 0,-2 0,-3 -1,-4zm-70 56c6,2 13,2 19,-1 6,-3 10,-9 12,-15 2,-5 1,-11 -1,-16 -2,2 -5,3 -7,4 1,3 1,7 1,10 -2,4 -5,8 -9,10 -4,2 -9,2 -13,1 -3,-1 -6,-3 -7,-6 -3,1 -5,2 -8,4 3,4 8,8 13,9zm17 -20c0,-2 0,-3 0,-4 -5,2 -11,5 -16,8 1,1 2,2 4,2 2,1 5,1 7,0 2,-2 4,-4 5,-6zm-76 46c7,2 13,2 20,0 6,-3 11,-8 13,-14 2,-5 2,-10 1,-15 -3,1 -5,2 -8,3 1,3 1,6 0,9 -2,5 -5,8 -9,10l0 0c-5,1 -9,1 -13,-1 -3,-1 -6,-3 -7,-6 -3,1 -5,2 -8,3 3,5 6,8 11,11zm19 -19c1,-2 1,-3 1,-4 -6,2 -11,4 -17,6 1,2 2,2 4,3 2,1 5,1 7,0l0 0c3,-1 4,-3 5,-5zm-79 39c6,3 13,4 19,1 7,-2 12,-6 15,-12 2,-5 3,-10 2,-15 -3,0 -5,1 -8,2 1,3 0,7 -1,10 -2,4 -6,7 -10,8l0 0c-4,1 -9,1 -13,-1 -3,-2 -5,-4 -6,-7 -3,0 -6,1 -8,2 2,5 5,9 10,12zm21 -17c0,-2 1,-3 1,-5 -6,2 -12,4 -18,6 1,1 2,2 3,3 3,1 5,1 8,0l0 0c3,0 5,-2 6,-4zm-82 31c5,4 12,5 18,4 7,-2 12,-6 16,-11 3,-5 4,-10 3,-16 -2,1 -5,2 -8,2 1,3 0,7 -2,10 -2,3 -6,6 -10,7l0 0c-5,1 -9,0 -13,-2 -3,-2 -5,-5 -6,-8 -3,1 -5,1 -8,1 2,6 5,10 10,13zm21 -15c1,-1 2,-3 2,-4 -6,1 -12,2 -18,4 1,1 2,2 3,3 2,1 4,2 7,1l0 0c3,0 5,-2 6,-4zm-84 24c5,5 11,6 18,6 7,-1 13,-5 17,-10 3,-4 5,-10 4,-15 -2,0 -5,1 -8,1 0,3 -1,7 -3,9 -2,4 -6,6 -11,7 -4,0 -9,-1 -12,-4 -3,-2 -5,-5 -6,-8 -2,0 -5,1 -7,1 1,5 3,10 8,13zm23 -13c1,-1 1,-2 1,-4 -6,1 -12,2 -17,2 0,2 1,3 2,4 2,2 5,2 7,2 3,0 5,-2 7,-4zm-87 17c5,5 12,7 18,7 7,0 13,-3 18,-8 3,-4 5,-9 5,-15 -2,0 -5,1 -7,1 -1,3 -2,6 -4,9 -3,3 -7,5 -12,5 -5,0 -9,-1 -12,-4 -3,-3 -4,-6 -5,-9 -2,0 -5,0 -8,0 1,6 3,10 7,14zm26 -15c-6,0 -12,1 -18,1 1,1 2,3 3,4 2,1 4,2 7,2 2,0 5,-1 7,-3 1,-1 1,-2 1,-4zm-62 1c-6,0 -12,0 -18,-1 1,2 1,3 2,4 2,2 4,3 7,3 3,0 5,-1 7,-2 1,-1 2,-3 2,-4zm403 -202c6,0 11,-1 17,-3 1,-1 3,-2 5,-2 2,-1 4,-2 5,-3 -2,1 -5,2 -7,2 -4,0 -8,0 -12,0 -8,-1 -16,-1 -21,4 -2,2 -3,4 -3,7 0,1 1,3 3,4 3,3 8,3 12,2 7,-1 14,-5 23,-11 1,-1 3,-2 5,-4 -7,4 -15,7 -22,8 -2,0 -13,3 -12,-2 0,-3 4,-3 7,-2zm50 -42c-7,6 -15,11 -24,14 -10,3 -19,4 -28,3 -9,-1 -17,-4 -23,-8 -6,-5 -11,-10 -14,-17 -3,-6 -4,-13 -4,-21 0,-4 1,-9 2,-14 0,0 0,0 0,0 -2,1 -5,1 -7,1l0 0c-1,4 -1,9 -2,13 0,9 2,17 5,24 4,8 9,14 16,19 7,5 16,8 26,10 10,1 20,0 31,-3 10,-4 19,-9 26,-17 1,0 1,-1 2,-1 0,0 0,0 0,0 -1,-2 -3,-4 -5,-6 1,0 1,0 1,1 -1,0 -2,1 -2,2zm-9 -9c-5,5 -12,10 -19,12 -8,3 -16,3 -23,2 -6,0 -12,-3 -17,-6 -5,-3 -8,-7 -10,-12l0 0c-2,-4 -3,-10 -3,-16 0,-5 1,-11 3,-18 0,0 1,0 1,0 0,0 -1,0 -1,0 -2,1 -5,2 -8,3l0 0c-1,5 -2,10 -2,15 0,7 1,14 4,19l0 0 0 0c3,6 7,11 12,14 6,4 13,7 20,8 8,1 17,0 26,-3 8,-2 16,-7 22,-13 1,-1 2,-2 2,-3 1,1 1,1 1,1 -2,-2 -3,-4 -5,-7 0,1 0,1 0,1 -1,1 -2,2 -3,3zm-8 -8c-4,4 -9,7 -15,9 -6,2 -12,2 -17,2 -5,-1 -9,-2 -12,-5 -3,-2 -5,-4 -6,-7l0 0c-2,-3 -2,-6 -2,-10 0,-5 1,-10 3,-16 1,-5 4,-10 6,-14 1,-2 3,-4 4,-6 1,-1 2,-2 3,-3 0,0 0,0 0,0l1 -1 1 0 0 0c0,0 0,0 1,0 2,0 5,1 10,3 2,1 3,1 5,2 0,0 0,0 0,0 -2,-3 -3,-6 -4,-9 0,0 0,0 0,0 -4,-1 -8,-2 -11,-3 -2,0 -3,0 -4,0l0 0 0 0 0 1c-1,0 -1,0 -2,0l0 0c-1,5 -3,10 -6,14 -2,3 -5,6 -9,9 0,0 0,0 0,-1 0,2 -1,4 -2,6 -2,6 -3,12 -3,18 0,5 1,9 3,13l0 0c2,4 4,7 8,10 4,3 9,4 15,5 6,1 13,0 20,-2 7,-2 13,-6 18,-10 1,-2 2,-3 3,-4l0 0c0,0 0,0 0,0 -1,-2 -3,-4 -4,-7 0,1 0,1 0,1 0,0 -1,1 -1,2 -1,1 -2,2 -3,3zm-25 -43c-4,-2 -6,-2 -8,-3 -1,1 -1,2 -2,2 -1,2 -2,3 -3,5 -3,5 -5,9 -6,14 -2,5 -3,10 -3,14 0,3 0,6 1,8l1 0c0,2 2,3 3,5 0,0 1,0 1,0 2,2 6,3 10,4 4,0 9,0 14,-2 6,-2 10,-5 13,-8 1,-1 2,-2 3,-3 1,-1 1,-2 2,-3 0,0 0,0 0,1 -5,-10 -11,-19 -16,-29l0 0c-3,-2 -6,-4 -10,-5zm-14 -46c0,3 1,6 2,9 2,6 5,10 9,14 0,0 1,1 2,2 0,0 0,0 0,0 -1,-3 -2,-6 -4,-10 -2,-5 -3,-11 -5,-17 0,0 0,0 0,0 -1,1 -3,2 -4,2zm-216 200c-6,7 -11,11 -17,14 1,-1 5,2 6,3 2,1 3,2 5,4 3,3 3,8 8,7 9,-1 12,-11 14,-18 4,-8 6,-16 8,-24 6,-22 9,-44 10,-66 1,-4 1,-7 1,-10 -1,7 -2,14 -3,17 -8,32 -19,56 -32,73zm27 -8c-10,33 -22,49 -31,56 -3,4 -7,7 -12,8 -4,1 -8,0 -12,-2 -4,-2 -6,-6 -7,-10 -1,-4 -1,-7 1,-10 2,-4 5,-6 9,-6 3,-1 7,0 10,2 2,3 5,8 0,9 -5,1 -4,-6 -7,-8 -3,-2 -7,2 -9,4 -1,3 -2,5 -1,8 1,3 3,6 6,8 3,2 6,3 10,2 9,-2 14,-11 12,-20 -2,-11 -12,-17 -22,-17 0,0 -1,0 -2,0 0,0 0,0 0,0 -1,1 -1,1 -1,1l0 0c-12,1 -22,9 -26,20 -4,12 -1,24 9,31l0 0 0 0c6,5 12,7 19,7 7,0 14,-2 21,-7 41,-26 51,-119 45,-175 -1,38 -5,71 -12,99zm56 28c-2,0 -3,-2 -4,-3 -1,-2 -1,-6 1,-8 1,-2 3,-3 6,-4 2,0 5,1 7,2 2,2 3,4 4,7 0,3 0,6 -2,8 -4,5 -11,7 -16,5 -8,-3 -18,-10 -26,-30 -3,-8 -6,-18 -7,-28 3,33 12,55 27,64 11,6 24,4 32,-3 4,-5 6,-10 6,-15 0,-5 -2,-10 -6,-14 -7,-6 -18,-6 -26,0 -1,1 -2,2 -3,3 0,0 -7,11 2,18 5,4 11,3 14,-2 1,-1 2,-3 1,-5 0,-2 -1,-4 -2,-5 -2,-1 -3,-1 -5,-1 -2,0 -4,1 -4,3 0,2 2,3 2,5 0,1 0,2 -1,3zm-12 -2c-1,-1 -1,-3 -1,-4 0,-1 0,-2 0,-3 0,-2 0,-4 -1,-5 -1,-3 -4,-6 -6,-9 -3,-5 -6,-10 -8,-15 -1,-4 -3,-8 -4,-12 -1,-5 -3,-10 -4,-14 4,37 14,54 24,62zm55 -66c-2,14 8,27 22,29 11,1 21,-7 23,-18 1,-9 -6,-17 -14,-18 -5,0 -14,3 -13,10 1,4 8,4 11,7 3,6 -4,8 -8,7 -5,-2 -8,-8 -7,-13 0,-5 2,-8 5,-11 4,-3 8,-4 12,-3 11,1 18,10 17,21 -1,12 -11,21 -22,21 -26,3 -51,-5 -72,-24 -14,-13 -26,-31 -34,-51 4,23 12,42 25,56 9,10 20,18 34,25 13,7 26,10 38,11 11,0 22,-3 31,-9 9,-6 16,-14 21,-23 3,-9 3,-19 -1,-27 -5,-10 -14,-17 -24,-19 -17,-4 -36,5 -42,22 -1,2 -2,5 -2,7zm-7 6c-9,2 -18,-2 -25,-6 -8,-5 -16,-12 -25,-21 -8,-7 -14,-14 -19,-21 0,-1 -1,-1 -1,-1 8,19 19,36 34,49 8,7 17,13 27,17 4,1 8,4 12,2 8,-5 1,-13 0,-20 -1,1 -2,1 -3,1zm-62 -53c7,7 16,13 26,17 10,4 20,6 30,5 10,-1 19,-4 26,-9 8,-4 13,-10 17,-17 4,-7 6,-15 6,-24 1,-5 0,-9 0,-14 0,0 0,0 0,0 -2,0 -5,-1 -8,-2l1 0c1,5 1,11 1,16 -1,8 -2,14 -6,20 -3,7 -8,12 -14,16 -7,4 -15,7 -23,7 -9,1 -19,0 -28,-4 -9,-4 -17,-9 -23,-16 -6,-6 -10,-13 -12,-21 -2,-7 -2,-14 0,-21 1,-6 4,-11 8,-16 1,-1 2,-2 2,-3 3,-3 7,-7 11,-10 0,0 0,0 0,0 -2,-1 -4,-2 -6,-4l0 0c-4,3 -7,6 -10,10 -4,5 -8,11 -10,16 0,2 -1,3 -1,5 0,1 -1,2 -1,4 -1,7 -1,14 1,21 2,8 6,17 13,24zm111 -34c0,-3 0,-5 1,-7 -1,0 -2,0 -3,0 0,0 1,0 1,0 0,2 0,4 1,7zm-42 -52c-1,2 -2,4 -4,6 0,0 0,0 0,-1 1,1 1,1 2,2 1,0 2,1 3,2l0 0c-1,-3 -1,-6 0,-9l0 0c0,0 0,0 -1,0zm-3 13c-2,-3 -3,-3 -4,-3 0,0 0,0 -1,-1l0 0c-4,3 -9,6 -14,7 -4,1 -8,1 -12,1 0,0 0,0 0,0 -2,1 -4,2 -5,3 -6,3 -10,7 -14,11 0,1 -1,1 -1,2 -3,3 -5,7 -6,10 -1,4 -1,8 1,13 1,5 4,9 7,14 5,5 11,9 17,11 7,3 14,4 21,3 5,0 10,-2 15,-5 3,-2 6,-5 8,-9 2,-3 3,-8 4,-13 0,-5 -1,-11 -3,-17 -1,-6 -3,-11 -6,-17 -2,-4 -4,-8 -7,-10zm-17 -41c0,-1 0,-2 0,-4 -1,0 -2,-1 -3,-1 -4,-3 -7,-7 -11,-10 -1,0 -2,1 -4,1 -3,1 -6,2 -8,3 -2,1 -3,2 -4,3l0 1c-1,1 -1,2 -1,4 -1,2 0,4 1,6l0 0 0 0 0 0 0 0c1,3 3,6 6,8 0,0 0,0 1,0 2,3 5,4 7,4l0 0 1 1c2,0 4,0 6,0 2,-1 3,-1 4,-2 0,0 1,-1 1,-1 1,-1 1,-2 2,-4 1,-2 1,-5 2,-9zm-57 15l0 0 0 0zm11 15c-2,2 -3,4 -4,5 1,-1 3,-3 5,-4 -1,-1 -1,-1 -2,-2 0,0 0,1 1,1zm-12 15l0 0c0,-1 0,-1 1,-1 -1,0 -1,0 -1,1zm92 17c1,1 1,3 2,4 1,7 2,13 2,19 0,6 -2,11 -4,16 -3,4 -6,8 -10,11 -5,3 -12,5 -18,5 -7,1 -15,0 -23,-3 -7,-3 -13,-7 -18,-13 -5,-5 -8,-10 -9,-16 -2,-5 -2,-10 -1,-15 2,-4 4,-8 6,-12 1,-1 2,-2 2,-2 4,-5 9,-9 15,-12 0,0 0,0 1,0 -1,0 -1,0 -1,0 -3,-1 -6,-2 -8,-3l0 0c-5,3 -9,7 -12,10 0,1 -1,2 -2,3 -3,4 -6,9 -7,14 -2,6 -2,12 0,19 2,6 5,13 11,19 5,6 13,11 21,14 8,3 17,5 25,4 8,-1 15,-3 21,-7 6,-3 10,-7 13,-13 3,-5 4,-11 5,-19 0,-5 -1,-11 -2,-17 -3,-2 -5,-3 -7,-5 -1,0 -1,-1 -2,-1 0,0 0,0 0,0zm-140 32c-6,4 -12,8 -17,11 -30,16 -60,21 -87,13 0,0 -4,6 -5,6 -2,2 -4,4 -7,6 -2,2 -5,3 -8,5 -1,1 -5,1 -5,3l0 1c1,5 10,6 13,6 8,1 16,0 24,-1 25,-5 53,-18 80,-40 4,-3 8,-6 12,-10zm-96 6c-1,1 -4,15 -6,14 32,9 63,-2 83,-13 19,-10 38,-25 53,-43 -18,13 -36,26 -56,34 -13,6 -26,9 -38,9 -7,1 -14,0 -21,-2 -3,-1 -13,-5 -15,1zm10 -76c-4,-1 -8,0 -12,0 -3,0 -10,-1 -12,-4 12,15 35,32 63,40 15,4 35,7 56,1 0,0 -1,0 -1,1 -12,1 -24,-1 -37,-5 -12,-4 -24,-10 -34,-17 -4,-3 -7,-6 -10,-10 -4,-3 -7,-6 -13,-6zm273 -7c3,4 4,7 5,10 1,3 2,5 1,8l0 0c0,2 -1,4 -2,6l0 0c-2,2 -4,4 -7,6 -4,1 -8,2 -12,2 -5,0 -9,-1 -12,-2l0 0 0 0c-2,-1 -3,-2 -4,-3 -1,-1 -2,-2 -3,-3l0 0 0 0c-2,-2 -3,-4 -3,-6 0,-3 0,-5 1,-8 1,-3 3,-6 6,-10l0 0c0,0 0,0 0,0 -3,0 -5,-1 -7,-1 -2,3 -4,6 -5,9 -1,3 -2,7 -1,10 0,4 1,7 3,10 3,3 6,6 10,7l0 1 0 0 0 0c4,2 9,3 15,3 5,0 10,-1 15,-3 3,-2 7,-5 9,-8l0 0c2,-3 4,-6 4,-9l0 -1c0,-3 0,-6 -1,-10 -1,-3 -3,-6 -5,-9 -2,0 -4,1 -6,1 -1,0 -1,0 -1,0 0,0 0,0 0,0zm-4 4c-1,-1 -2,-2 -2,-3 -6,0 -12,0 -18,0 -1,1 -1,1 -2,2l0 1c-2,2 -4,5 -5,8 -1,2 -1,3 -1,5 1,1 1,2 2,4 1,1 1,2 2,2 1,1 2,1 3,2l0 0 0 0 0 0 0 0c3,1 6,2 10,2 3,0 7,-1 9,-2 3,-1 4,-3 6,-4 1,-1 1,-3 1,-4l0 0c0,-2 0,-3 -1,-5 0,-3 -2,-6 -4,-8zm23 -8c-2,0 -4,1 -6,2 1,2 3,5 4,8 1,5 2,9 1,13l0 0c0,4 -2,8 -5,12l0 0c-3,4 -7,7 -11,9 -5,3 -11,4 -17,4 -7,0 -12,-1 -17,-4l0 0 0 0c-2,-1 -4,-2 -6,-3 -2,-2 -4,-4 -6,-6 -3,-4 -4,-8 -5,-12 0,-4 0,-9 2,-13 1,-3 2,-6 4,-9 -2,0 -4,-1 -6,-1 -2,2 -3,5 -4,8 -2,5 -3,10 -2,16 0,5 2,10 6,15 3,4 8,8 14,11 5,3 12,5 20,5 7,0 14,-2 20,-5 5,-2 10,-6 14,-11 3,-5 5,-10 6,-15 0,-5 0,-11 -2,-16 -1,-3 -2,-5 -4,-8zm11 16c0,-1 0,-1 0,-1 0,3 0,5 0,8 0,0 0,-1 0,-1 2,0 3,0 6,0 -2,-2 -4,-4 -6,-7 0,0 0,0 0,0 0,1 0,1 0,1zm-382 49c4,-2 8,-4 13,-4 6,-1 11,1 16,5 5,5 11,14 4,20 -2,2 -5,2 -7,3 -2,1 -5,1 -6,3 -3,2 -4,7 -1,9 3,2 8,1 11,-1 7,-4 11,-12 10,-20 0,-7 -4,-13 -9,-17 -5,-5 -12,-7 -18,-6 -4,0 -8,1 -12,3l-1 5zm-32 231c7,0 13,0 20,1 65,1 129,-6 190,-22 107,-28 202,-81 278,-155 -1,-2 -2,-3 -3,-4 -76,73 -170,126 -276,154 -61,16 -125,23 -189,21 -6,0 -13,0 -19,0l-1 5zm-1 10c7,0 14,0 21,1 65,1 130,-6 193,-23 108,-28 205,-82 282,-157 -1,-2 -2,-3 -4,-4 -76,75 -172,128 -280,156 -61,17 -126,24 -191,22 -7,0 -14,0 -21,0l0 5zm-5 31c2,1 4,1 6,1 4,1 8,-1 11,-4 3,-2 4,-6 5,-10 0,4 1,8 4,11 3,3 7,4 11,4 4,0 8,-1 11,-4 3,-3 5,-7 5,-11 0,4 2,8 4,11 3,3 7,4 12,4 4,0 8,-2 11,-5 2,-3 4,-7 4,-11 0,4 2,8 5,10 3,3 7,5 11,4 4,0 8,-2 11,-5 2,-3 4,-7 3,-11 1,4 3,7 6,10 3,2 7,4 11,3 5,0 8,-2 11,-6 2,-3 3,-7 3,-11 1,4 3,8 6,10 3,2 8,3 12,3 4,-1 8,-3 10,-7 2,-3 3,-7 3,-11 0,4 3,7 6,10 3,2 8,3 12,2 4,-1 7,-3 10,-7 2,-3 3,-7 2,-11 1,4 3,7 7,9 3,2 7,3 11,2 5,-1 8,-4 10,-8 2,-3 3,-7 2,-11 1,4 3,7 7,9 4,2 8,2 12,1 4,-1 7,-4 9,-8 2,-3 2,-7 1,-11 2,4 4,7 8,9 4,1 8,2 12,0 4,-1 7,-4 9,-8 1,-3 2,-7 0,-11 2,3 5,6 8,8 4,1 8,2 12,0 4,-2 7,-5 9,-9 1,-3 1,-7 0,-11 2,4 5,6 8,8 4,1 8,1 12,-1 4,-2 7,-5 8,-9 2,-3 2,-7 0,-11 2,4 5,6 9,7 4,2 8,1 12,-1 3,-2 6,-5 7,-9 1,-4 1,-8 -1,-11 2,3 6,6 9,7 4,1 9,0 12,-2 4,-2 7,-6 8,-10 0,-4 0,-7 -2,-11 2,3 5,6 9,6 4,1 9,1 12,-2 4,-2 6,-6 7,-10 1,-4 0,-7 -2,-11 2,3 6,5 10,6 4,1 8,0 11,-3 4,-2 6,-6 7,-10 0,-4 -1,-8 -3,-11 2,3 6,5 10,5 4,1 8,0 11,-3 4,-2 6,-6 6,-10 1,-4 -1,-8 -3,-11 3,3 6,4 10,5 4,0 8,-1 12,-4 3,-3 5,-7 5,-11 0,-4 -1,-8 -4,-11 3,3 7,5 11,5 4,0 8,-2 11,-5 0,0 1,-1 1,-2 -1,0 -2,-1 -3,-2 0,1 0,1 -1,2 -2,2 -5,3 -8,3 -4,0 -7,-1 -9,-4 -4,-4 -4,-11 0,-16 -1,-1 -2,-1 -3,-2 -5,6 -5,14 0,20 -5,-5 -15,-6 -21,0 -6,5 -7,14 -2,21 -5,-6 -15,-7 -21,-2 -6,5 -8,14 -3,21 -5,-6 -14,-8 -21,-3 -7,5 -8,14 -4,21 -5,-6 -14,-8 -21,-4 -7,5 -9,14 -5,21 -4,-7 -13,-9 -20,-5 -7,4 -10,13 -6,21 -4,-7 -14,-10 -21,-6 -7,4 -10,13 -7,20 -4,-7 -12,-10 -20,-7 -7,4 -11,12 -8,20 -3,-7 -12,-11 -19,-8 -8,3 -12,12 -9,20 -3,-8 -12,-12 -20,-9 -7,3 -11,11 -9,19 -3,-8 -11,-12 -19,-10 -8,3 -13,11 -11,19 -2,-8 -10,-12 -18,-10 -8,2 -13,10 -12,18 -2,-8 -10,-13 -18,-11 -8,1 -13,9 -12,17 -2,-8 -9,-13 -17,-12 -8,1 -14,9 -13,17 -2,-8 -9,-14 -17,-13 -8,1 -14,9 -14,17 -1,-8 -8,-14 -16,-14 -8,1 -15,8 -15,16 0,-8 -7,-14 -15,-14 -9,0 -15,7 -15,15 -1,-8 -8,-15 -16,-15 -8,0 -15,7 -15,15 0,-8 -7,-15 -15,-16 -1,0 -2,0 -3,1l0 3c1,0 2,0 3,0 7,0 11,6 11,12 0,4 -1,7 -4,9 -2,2 -5,3 -8,3 -2,0 -4,-1 -5,-1l-1 3zm310 -366c1,1 2,2 3,2 22,17 49,24 76,20 9,-1 18,-3 27,-7l-12 -2c-5,2 -10,3 -16,4 -23,3 -46,-2 -66,-15l-12 -2zm-117 -16c-1,0 -2,1 -3,2 -1,1 -2,2 -3,3 -1,1 -2,2 -2,3 -2,4 -3,8 -3,13 1,6 2,11 5,17 3,5 7,10 12,13 3,3 8,4 12,5 3,0 6,0 9,-1 3,-1 5,-3 8,-6 1,-1 2,-2 3,-3 2,-3 4,-6 6,-10 2,-5 4,-11 5,-16 1,-4 1,-8 1,-11 0,0 0,0 0,0l0 -1 -1 -1c0,0 0,0 0,0 0,0 0,0 0,0l-49 -7zm-118 -17c-2,2 -3,4 -5,6 -7,9 -11,21 -12,34 0,12 3,24 9,35 7,11 18,21 33,31 7,4 28,16 55,20 16,2 31,1 46,-3 4,-1 8,-2 12,-4 -31,21 -71,38 -105,19 -1,-1 -1,-1 -1,-1l0 -1c-2,-14 -10,-28 -22,-37 -8,-6 -17,-10 -27,-11 -4,-1 -9,-1 -14,-1l-1 4c14,-1 28,3 39,11 11,9 19,21 21,35 2,24 -16,45 -40,47 -12,1 -24,-5 -31,-15l0 6c2,3 5,5 9,7l0 0c20,15 44,20 71,15 26,-5 54,-19 81,-40 10,-8 19,-16 28,-25 -29,39 -62,73 -105,91 -26,10 -50,11 -72,3 -6,-2 -13,-6 -18,-10l-1 5c23,15 54,21 93,5 21,-8 41,-21 60,-39 -18,18 -38,34 -61,44 -36,16 -72,22 -96,18l0 4c10,2 22,2 36,0 19,-3 41,-9 62,-18 48,-22 87,-70 110,-104 -26,48 -58,86 -93,111 -23,16 -48,27 -73,32 -12,2 -24,4 -36,4 -3,0 -6,-1 -10,-1l0 4c16,1 31,0 47,-3 26,-5 51,-16 74,-33 33,-23 63,-57 88,-100 -14,28 -30,53 -48,75 -14,16 -29,31 -45,43 -16,12 -33,22 -51,29 -22,9 -45,14 -69,15l0 4c24,-1 48,-6 71,-15 18,-8 35,-18 51,-30 17,-12 32,-27 46,-44 22,-26 41,-56 56,-91 -14,43 -44,111 -89,149 -18,15 -38,27 -58,37 -20,9 -41,15 -62,18 -7,1 -13,1 -19,2l-1 4c7,0 14,-1 20,-2 22,-3 43,-10 63,-19 21,-9 41,-22 59,-37 34,-28 58,-72 72,-103 4,-9 8,-17 11,-25 2,-4 3,-8 4,-12 -1,15 -3,35 -5,41 -8,32 -19,56 -32,72 -7,9 -13,13 -23,15 -1,0 -2,0 -3,0 -13,2 -25,10 -29,23 -5,14 -1,26 10,35 12,10 28,10 44,0 12,-8 21,-20 29,-38 7,-15 12,-33 15,-55 1,-4 1,-8 2,-12 2,30 10,59 29,70 12,6 27,5 36,-4 5,-5 8,-11 8,-18 0,-6 -3,-11 -7,-15 -9,-8 -22,-8 -31,-1 -1,1 -3,2 -4,4 0,0 -1,0 -1,0 -5,-2 -20,-25 -25,-74 5,15 12,28 21,39 10,10 21,19 36,27 13,6 26,10 39,10 12,0 23,-3 33,-9 10,-6 17,-15 22,-25 4,-10 4,-20 -1,-30 -5,-10 -15,-18 -26,-20 -9,-3 -19,-1 -28,3 -8,4 -15,12 -19,20 -1,4 -2,7 -2,11 -1,0 -2,1 -4,1 -7,1 -16,-3 -22,-6 -8,-5 -16,-11 -25,-20 -7,-7 -13,-14 -18,-21l0 0c7,8 17,15 28,19 10,4 22,6 33,5 10,-1 20,-4 28,-9 8,-5 14,-12 19,-20 3,-6 5,-14 6,-22 1,8 2,16 6,22 3,9 9,16 17,21 8,6 18,10 28,11 11,1 22,0 33,-3 11,-4 21,-10 29,-18 0,0 1,-1 1,-1l0 0c1,1 2,2 3,3 0,0 -1,1 -1,1 -8,7 -26,19 -42,21 -3,1 -7,1 -10,0 -9,0 -18,-1 -24,5 -3,3 -5,7 -4,10 0,3 1,5 4,7 5,4 12,3 14,3 8,-2 16,-5 25,-12 8,-6 32,-25 41,-32 11,12 24,24 38,33 -82,81 -185,139 -301,170 -65,17 -133,25 -202,23 -8,0 -17,-1 -25,-1l-2 10c1,1 2,2 3,4 3,3 7,5 12,5 4,0 9,-1 12,-4 2,-3 4,-6 4,-9 3,0 6,0 8,0 0,6 -3,11 -7,14 -4,5 -11,7 -18,7 -6,0 -11,-2 -15,-6l-1 8c4,3 10,5 16,5 9,0 17,-3 23,-9 5,-5 9,-11 9,-19l0 0c1,8 4,14 10,19 6,6 14,9 23,9 8,0 16,-4 22,-11 5,-5 7,-12 7,-19l1 0c1,7 5,13 10,18 7,5 15,8 24,6 9,-1 16,-5 21,-12 5,-6 7,-13 6,-20l0 0c2,7 6,13 13,17 7,5 15,6 24,5 8,-2 15,-7 20,-15 4,-6 5,-13 4,-20l0 0c3,6 7,12 14,16 7,4 16,5 24,2 9,-2 15,-8 19,-16 3,-6 4,-14 2,-21l1 0c3,7 8,12 15,15 7,4 16,4 24,0 8,-3 15,-9 18,-17 2,-7 2,-15 0,-21l0 0c4,6 9,11 16,13 9,3 17,2 25,-2 8,-4 13,-11 16,-19 2,-7 1,-15 -2,-21l0 0c4,6 11,10 18,12 8,2 17,0 24,-5 7,-4 12,-12 14,-20 1,-7 0,-15 -4,-21l1 0c4,5 11,9 18,10 9,1 17,-1 24,-7 7,-5 11,-13 12,-21 0,-8 -2,-15 -6,-21l0 0c6,5 12,8 20,9 8,0 17,-3 23,-9 6,-6 10,-14 10,-23 0,-7 -3,-14 -8,-20l0 0c6,5 13,7 20,7 9,-1 17,-5 22,-11 6,-7 9,-16 8,-24 -1,-8 -4,-14 -10,-19l1 0c6,4 13,5 20,4 9,-1 16,-6 21,-13 5,-8 7,-16 5,-25 -2,-7 -6,-13 -11,-17l0 -1c6,4 14,4 21,2 8,-2 15,-8 19,-15 1,-1 1,-2 1,-3l-7 -1c0,0 0,0 0,0 -3,6 -9,11 -15,13 -5,1 -11,1 -16,-2 2,-2 3,-4 4,-7 3,2 7,2 10,1 3,-1 6,-3 9,-6l-9 -1c-1,0 -1,0 -2,0 -1,1 -3,1 -4,0 0,0 0,-1 0,-1l-11 -2c-1,2 -2,4 -3,6 -7,15 -14,27 -21,38 -7,11 -14,21 -21,28 -7,7 -13,12 -19,14 -4,2 -9,3 -13,0l0 0c-3,-2 -5,-7 -4,-14 0,-7 2,-15 6,-25 4,-9 10,-20 17,-31 5,-7 10,-14 16,-22l-10 -1c-5,5 -10,10 -15,15 -9,8 -18,15 -26,20 -8,5 -16,8 -22,8 -4,1 -7,0 -9,-2 -1,-1 -2,-1 -2,-2 -3,-4 -3,-9 -1,-15 2,-7 6,-15 12,-23 2,-3 4,-6 7,-9l-7 -1c-1,2 -3,4 -4,6 -7,9 -11,18 -13,25 -1,2 -1,5 -2,7 -7,-14 -14,-28 -20,-43l-8 -1c1,0 1,0 1,0 1,5 -1,11 -7,13 -2,1 -5,1 -8,0 -1,0 -1,-1 -2,-1 -2,-1 -3,-3 -4,-5 -1,-3 0,-6 1,-9 0,0 1,-1 1,-1l-4 -1c0,0 0,1 0,1 -1,1 -1,3 -2,5 0,-2 -1,-4 -1,-6l-6 -1c2,7 4,13 6,19 13,39 33,72 59,100 12,13 25,25 39,35 -1,1 -1,2 -2,3 -14,-10 -27,-22 -39,-35 -26,-28 -46,-62 -59,-100 -3,-8 -5,-15 -7,-22l-6 -1c0,1 0,1 1,2l-1 0c-9,5 -20,8 -31,9 -29,4 -57,-3 -80,-21 -3,-2 -6,-4 -9,-7l-13 -2c-3,1 -5,2 -8,4 -2,1 -4,2 -5,4l0 0c-1,1 -1,1 -1,1 -1,2 -1,4 -2,6 0,3 1,6 2,9l0 0 0 0c2,4 4,7 7,10l1 0 0 0c3,3 7,5 10,6l0 0 0 0c4,0 7,0 10,0 2,-1 4,-2 5,-3 1,-1 2,-1 2,-2 1,-1 2,-3 3,-5 1,-3 2,-7 2,-10 0,-1 0,-1 0,-1 2,1 4,3 6,4 0,3 -1,7 -2,9 -1,3 -2,5 -4,7 0,1 -1,2 -2,3 -2,2 -5,3 -9,4 -4,1 -8,1 -12,0l0 0 0 0c-5,-1 -9,-3 -13,-6 0,0 0,-1 -1,-1 -4,-4 -7,-8 -9,-12l0 0 0 0 0 0 0 0c-2,-4 -3,-8 -2,-12 0,-4 1,-7 3,-10 0,0 0,-1 1,-1 1,-2 3,-4 6,-6l-7 -1c-2,2 -3,3 -4,4 0,0 0,1 0,1 -3,4 -4,8 -5,12 0,5 1,10 3,15l0 0 0 0c2,5 6,10 11,14l0 0 0 0c5,4 10,7 15,8l0 0 0 0c5,1 11,1 15,0 5,-1 8,-3 12,-6 1,-1 2,-2 2,-3 2,-2 4,-5 5,-8 1,-2 2,-5 2,-9 2,1 4,2 6,3 0,3 -1,6 -2,9 -2,5 -5,10 -9,13 -4,4 -9,6 -14,8 -6,1 -12,1 -18,-1l0 0 0 0c-6,-1 -12,-4 -17,-8 0,0 -1,0 -1,-1 -6,-5 -10,-10 -13,-16l0 0c-2,-6 -4,-12 -3,-18 0,-6 2,-11 5,-15 0,-1 1,-2 2,-3l-11 -1c0,0 0,1 0,1 0,4 -1,8 -2,13 -1,5 -3,11 -5,16 -3,6 -6,11 -10,15 -3,4 -7,7 -11,8 -4,2 -8,2 -12,2 -5,-1 -10,-3 -15,-7 -6,-3 -10,-9 -14,-15 -3,-6 -5,-13 -5,-20 0,-5 1,-11 3,-15 1,-2 1,-4 3,-5 0,-1 1,-2 2,-2l-6 -1c-1,0 -1,0 -1,0 -1,2 -2,3 -3,5 -2,6 -4,12 -3,19 0,7 2,15 6,22 4,7 9,12 15,17 5,3 11,6 17,7 5,0 10,0 15,-2 5,-2 9,-5 13,-9 4,-5 7,-10 10,-17 1,-1 2,-2 2,-4 0,0 0,0 0,0 1,4 2,7 3,11 0,-1 0,-1 0,-1 -3,6 -6,11 -10,15 -5,5 -10,9 -16,11 -5,2 -12,3 -18,2 -7,-1 -14,-4 -20,-8 -1,0 -1,-1 -1,-1 -7,-5 -12,-11 -16,-18 -4,-8 -7,-17 -7,-25 0,-8 1,-15 4,-21 1,-2 1,-3 2,-4l-5 -1c-1,1 -1,1 -2,2 -3,7 -5,16 -4,24 0,9 3,19 7,27 5,9 11,16 19,21 7,5 15,8 22,9 8,1 15,1 21,-2 7,-3 13,-7 18,-12 3,-4 6,-8 9,-13l0 0c1,2 3,4 4,6 0,0 0,0 0,0 -2,4 -5,8 -8,11 -6,7 -13,11 -20,14 -8,3 -16,4 -25,3 -8,-1 -17,-5 -25,-10 -1,-1 -1,-1 -2,-2 -7,-5 -14,-13 -18,-22 -6,-9 -8,-19 -9,-30 0,-9 2,-18 5,-27 0,0 1,0 1,0l-6 -1c-4,9 -6,19 -5,29 0,11 3,22 9,32 6,10 13,19 22,25 7,5 15,9 23,10 -8,0 -17,-1 -26,-4 -28,-9 -46,-28 -48,-32 0,-1 0,-3 -1,-4 3,-2 6,-5 9,-8 6,-8 9,-18 8,-29 0,-7 -3,-15 -7,-21l-5 -1c5,6 8,14 9,23 0,9 -3,18 -8,26 -2,3 -5,5 -8,7l0 0c-11,9 -27,7 -36,-4 -7,-9 -5,-22 3,-29 4,-2 8,-3 12,-3 4,1 8,3 11,6 2,3 3,6 2,9 0,3 -2,8 -5,9 -4,1 -7,-3 -9,-4 -3,-2 -9,0 -7,4 2,2 5,4 8,5 4,0 8,0 11,-3 3,-3 5,-6 6,-10 0,-5 -1,-9 -4,-12 -3,-4 -7,-7 -13,-7 -5,-1 -10,0 -14,4 -9,7 -11,19 -7,29 4,9 13,20 26,30 9,8 25,18 47,24 16,5 32,6 47,4 7,-1 14,-3 21,-5 -8,4 -15,7 -23,9 -14,3 -29,4 -44,2 -27,-3 -47,-15 -55,-19 -14,-9 -24,-19 -31,-30 -6,-10 -9,-22 -8,-33 0,-12 4,-23 11,-32 2,-3 4,-5 7,-7l-5 -1zm-16 -2c-1,2 -2,4 -3,6l-2 15c3,-7 7,-14 10,-20l-5 -1z"/>
   </g>
  </g>
 </g>
</svg>
